<svg id="Group_557" data-name="Group 557" xmlns="http://www.w3.org/2000/svg" width="10.949" height="23.182" viewBox="0 0 10.949 23.182">
  <g id="Group_13" data-name="Group 13">
    <path id="Path_8" data-name="Path 8" d="M764.019,1370.411a1.061,1.061,0,0,1,.809-.9,4.407,4.407,0,0,1,1.3,0,11.578,11.578,0,0,0,1.569.256c.013-.116.5-3.5.5-3.637-.075-.071-2.13-.338-2.237-.338-.7,0-1.4,0-2.1,0-.065,0-1.158.195-1.24.194a10.134,10.134,0,0,0-1.163.489,3.428,3.428,0,0,0-.538.374,4.275,4.275,0,0,0-1.038,1.528,3.764,3.764,0,0,0-.164.47,1.634,1.634,0,0,0-.03.281c-.02.183,0,1.656,0,1.777.006.343,0,.686,0,1.029v1.345a.492.492,0,0,1-.055.046c-.013.006-.034,0-.05,0h-2.248a.116.116,0,0,0-.046.006c-.016.006-.024.021-.037.031v3.551c.025.016.038.031.051.031h2.2a.112.112,0,0,1,.045.009.339.339,0,0,1,.038.042v11.387a2.419,2.419,0,0,1,0,.342c-.017.124.074.17.141.248h4.227c.017-.024.032-.034.038-.047a.289.289,0,0,0,0-.048v-11.692c0-.05,0-.1,0-.146,0-.015-.005-.034,0-.047s.023-.023.052-.053h3.335a13.491,13.491,0,0,0,.231-1.491v-.009c.029-.277.1-1.565.095-1.906a.308.308,0,0,0-.023-.088c-.013-.009-.026-.022-.039-.022q-1.784,0-3.57,0a.1.1,0,0,1-.047-.012c-.011-.009-.021-.022-.037-.037q0-1.387,0-2.784A1.391,1.391,0,0,1,764.019,1370.411Z" transform="translate(-757.249 -1365.796)" fill="#9c7e49" fill-rule="evenodd"/>
  </g>
</svg>
