<svg xmlns="http://www.w3.org/2000/svg" xmlns:xlink="http://www.w3.org/1999/xlink" width="2653.418" height="328.955" viewBox="0 0 2653.418 328.955">
  <defs>
    <linearGradient id="linear-gradient" x1="0.363" y1="0.878" x2="0.604" y2="0.011" gradientUnits="objectBoundingBox">
      <stop offset="0" stop-color="#687d33"/>
      <stop offset="1" stop-color="#3d5724"/>
    </linearGradient>
    <linearGradient id="linear-gradient-2" x1="0.197" y1="0.868" x2="0.714" y2="0.145" xlink:href="#linear-gradient"/>
    <linearGradient id="linear-gradient-3" x1="0.345" y1="0.824" x2="0.672" y2="0.044" xlink:href="#linear-gradient"/>
    <linearGradient id="linear-gradient-4" x1="0.425" y1="0.905" x2="0.749" y2="0.163" xlink:href="#linear-gradient"/>
    <linearGradient id="linear-gradient-5" x1="0.275" y1="0.915" x2="0.765" y2="0.116" xlink:href="#linear-gradient"/>
    <linearGradient id="linear-gradient-6" x1="0.228" y1="0.893" x2="0.657" y2="0.089" xlink:href="#linear-gradient"/>
    <linearGradient id="linear-gradient-7" x1="0.225" y1="1.022" x2="0.786" y2="-0.004" xlink:href="#linear-gradient"/>
    <linearGradient id="linear-gradient-8" x1="0.369" y1="0.842" x2="0.656" y2="0.179" xlink:href="#linear-gradient"/>
  </defs>
  <g id="Group_568" data-name="Group 568" transform="translate(371.052 20.954)" opacity="0.8">
    <path id="Path_1984" data-name="Path 1984" d="M-95.8,24.858c-1.741-.756-3.447,1.377-2.747,3.041A2.292,2.292,0,0,0-95.6,29.068c1.573-.739,1.464-3.333-.06-4.14C-95.7,24.9-95.754,24.879-95.8,24.858ZM363.4,215.977a3.835,3.835,0,0,0,7.573-1.172C370.378,209.587,362.4,210.822,363.4,215.977ZM519.481,35.058a4.428,4.428,0,0,0,4.573.007,4.066,4.066,0,0,0,1.954-4.228C524.366,23.79,513.152,30.989,519.481,35.058ZM19.918,253.4a3.977,3.977,0,0,0,4.35,3.05,3.98,3.98,0,0,0,3.223-4.222C26.893,247.006,18.908,248.241,19.918,253.4ZM-209.2,160.24a3.241,3.241,0,0,0-3.022,3.2,3.236,3.236,0,0,0,3.192,3.028C-205.031,166.369-205.2,160.123-209.2,160.24Zm-89.324-70.092a5.352,5.352,0,0,0-2.45,3.612,4.811,4.811,0,0,0,1.3,4.132,4.968,4.968,0,0,0,6.173.4C-288.43,94.7-293.258,86.864-298.528,90.148ZM87.228,40.654A2.8,2.8,0,0,0,90.6,42.741a2.9,2.9,0,0,0,1.9-3.525C91.437,35.786,86.585,37.174,87.228,40.654Zm452.488,74.571a3.049,3.049,0,0,0-4.977,1.677,3.3,3.3,0,0,0,2.146,3.67A3.051,3.051,0,0,0,539.716,115.225Zm-420.808,30.7a5.584,5.584,0,0,0,4.023,6.708,5.677,5.677,0,0,0,6.524-4.368C130.6,142,120.705,139.667,118.908,145.929ZM-111.6,92.012a3.943,3.943,0,0,0,2.626,4.551,3.943,3.943,0,0,0,4.662-2.428C-102.618,89.135-110.355,86.926-111.6,92.012Zm336.717-6.463a3.115,3.115,0,0,0,.171,6.227C229.291,91.677,229.121,85.431,225.116,85.549Z" fill="#fff"/>
    <g id="Group_564" data-name="Group 564">
      <path id="Path_1985" data-name="Path 1985" d="M382.709,146.453a27.042,27.042,0,0,0-2.9-6.483,100.57,100.57,0,0,1-1.525,11.3c-1.991,8.413-.141,10.36,3.108,20.326-9.757-7.791-9.286-6.819-28.678-13.139,11.114,10.413,17.693,13.295,27.175,15.528-7.693.087-17.895-.3-28.127,10.288a56.514,56.514,0,0,0,18.109-3.424,73.963,73.963,0,0,0,11-4.474c-1.252,4.292-2.072,7.129-1.564,11.066,1.069,8.3,5.12,17.762,5.12,17.762a59.71,59.71,0,0,0,.037-22.7c-.457-2.38-1.261-4.258-1.3-6.7a46.578,46.578,0,0,0,32.809,9.848c-9.982-5.43-20.349-10.978-31.679-11.843a30.446,30.446,0,0,0,4.986-2.838c11.836-8.874,13.434-13.456,15.461-16.544.722-1.1,2.91-3.3,4.363-6.061-9.4,1.641-20.39,15.409-25.853,23.646C381.816,160.8,384.722,155.28,382.709,146.453Z" fill="#fff"/>
      <path id="Path_1986" data-name="Path 1986" d="M-130.972,110.5a27.03,27.03,0,0,0,7.1.276,100.919,100.919,0,0,1-9.449-6.377c-6.657-5.516-9.222-4.721-19.6-6.229,11.31-5.29,10.23-5.3,24.495-19.876-14.261,5.342-19.762,9.96-25.969,17.469,3.334-6.934,8.2-15.908,3.254-29.772A56.5,56.5,0,0,0-156.1,83.738a73.883,73.883,0,0,0-.87,11.845c-3.292-3.025-5.471-5.018-9.225-6.309-7.909-2.721-18.191-3.288-18.191-3.288a59.71,59.71,0,0,0,20.327,10.1c2.335.646,4.374.759,6.583,1.806a46.573,46.573,0,0,0-23.377,25.038c9.294-6.538,18.865-13.369,24.665-23.141a30.437,30.437,0,0,0,.331,5.728c2.705,14.544,6.1,18.008,7.971,21.194.666,1.135,1.672,4.074,3.5,6.6,2.7-9.149-4.767-25.109-9.728-33.659C-143.436,103.334-139.776,108.388-130.972,110.5Z" fill="#fff"/>
      <path id="Path_1987" data-name="Path 1987" d="M-322.723,213.553a51.211,51.211,0,0,1,.486,36.329c-.921,2.495-2.051,4.968-2.282,7.619s.656,5.6,2.933,6.98a6.7,6.7,0,0,0,6.847-.384,13.936,13.936,0,0,0,4.621-5.438c6.537-12.2,4.145-27.655-2.686-39.7A128.253,128.253,0,0,0-320.49,206.7q2.389,1.046,4.7,1.907c9.894,5.615,18.809,13.037,25.226,22.4,7.532,10.985,11.4,24.759,9.132,37.884-.6,3.473-1.621,7-.973,10.465s3.711,6.832,7.193,6.277a6.544,6.544,0,0,0,4.557-3.673,16.172,16.172,0,0,0,1.387-5.882,65.68,65.68,0,0,0-9.071-39.5c-1.034-1.718-2.172-3.369-3.362-4.98a68.149,68.149,0,0,0,10.416,4.676,67.187,67.187,0,0,0,39.55,24.567,36.279,36.279,0,0,0,13.805.468c2.68-.509,5.765-2.11,5.761-4.838,0-1.9-1.65-3.471-3.458-4.061a15.831,15.831,0,0,0-5.659-.336c-15.737.734-30.28-2.081-43.274-13.776,19.577,4.944,41.417,2.276,50.656-11.858,1.783-2.728,1.947-6.719-.6-8.747-2.569-2.043-6.363-3-11.922,2.946-12.884,13.774-35.235,19.089-63.493,1.81a65.637,65.637,0,0,0-15.4-10.651,61.423,61.423,0,0,0,24.615.911c7.439,3.114,15.2,5.443,23.217,5.87,10.649.567,21.889-2.61,29.212-10.362a9.624,9.624,0,0,0,2.988-5.506c.183-2.121-2.977-7.327-10.32-1.987-7.761,5.644-18.837,15.733-38.64,10.425a52.217,52.217,0,0,0,25.128-16.8,12.461,12.461,0,0,0,2.96-5.856c.778-5.893-6.86-11.094-12.881-2.967-16.515,22.288-41.744,30.41-68.355,13.1-1.608-1.619-3.32-3.233-5.29-4.885a70.708,70.708,0,0,0,16.407,4.335c13.058,1.661,27.621-2.131,35.428-12.729a12.033,12.033,0,0,0,2.4-5.043,5.7,5.7,0,0,0-1.565-5.168c-1.78-1.584-4.58-1.464-6.728-.431a20.548,20.548,0,0,0-5.594,4.407c-24.419,25.09-54.616,5.994-64.923-3.1-2.005-1.769-3.971-3.707-6.462-4.678s-5.72-.684-7.326,1.455c7.8,6.856,16.633,10.653,25.747,15.268A51.211,51.211,0,0,1-322.723,213.553Z" fill="url(#linear-gradient)"/>
      <path id="Path_1988" data-name="Path 1988" d="M185.836,136.722A268.028,268.028,0,0,0,174.9,103.606c6.393,6.222,18.622,15.753,30.551,11.546-3.92-14.572-23.951-13.077-31.008-12.7a268.929,268.929,0,0,0-27.19-50.592c9.881,9.9,24.728,26.752,44.2,21.555-5.362-21.774-31.072-23.652-45.912-24.031a216.856,216.856,0,0,0-25.055-29.629c12.912,6.67,24.8,11.043,36.014,5.412-8.96-12.22-23.658-11.171-37.182-6.549A165.42,165.42,0,0,0,89.08-4.743l-.244-.145L87.744-3.047l.246.146c17.163,10.19,32.52,24.193,45.822,40.394-9.775,8.659-15.329,20.035-8.879,28.8,8.236-6,9.985-16.31,9.723-27.776a246.307,246.307,0,0,1,24.891,37.418c-15.519,9.57-31.923,27.524-23.909,43.009,14.959-4.092,21.514-23.118,24.35-42.21a274.2,274.2,0,0,1,17.877,40.842c-9.452,3.973-24.042,10.454-20.479,23.373,10.1-.633,18.171-14.895,20.787-22.443a247.542,247.542,0,0,1,9.159,34.924c-10.039,4.138-31.682,13.843-31.625,31.482,13.239,2.435,27.184-19.628,31.85-30.255a182.61,182.61,0,0,1,2.983,32.026c-7.17,6.874-26.282,15.9-22.61,30.87,13.167-.1,18.877-20.338,23-30.006h.019c-2.4,13.706-9.112,38.629,4.41,46.794,11.316-12.506.387-33.335-3.082-46.785h.044c4.86,8.367,12.853,20.851,23.667,18.338.991-11.885-15.077-14.1-23.305-19.243.028-14.807-2.177-31.192-6.392-48.088,4.025,8.79,8.891,19.253,17.9,19.9C204.979,149.284,197.483,141.563,185.836,136.722Z" fill="url(#linear-gradient-2)"/>
      <path id="Path_1989" data-name="Path 1989" d="M285.755,66.471a96.4,96.4,0,0,0-8.247-13.311c5.081.149,10.771.378,15.719-.315,19.024-2.706,24.64-12.776,16.61-19.4C300.183,25.479,284.216,43.82,277,52.481a162.057,162.057,0,0,0-20.422-22.593,118.527,118.527,0,0,0,13.4,2.159c5.491.515,16.774-.358,15.4-6.989-2.753-13.235-23.3-1.2-29.467,4.208a167.144,167.144,0,0,0-18.976-15,127.122,127.122,0,0,0,19.167-7.985c11.006-5.831,24.419-17.727,14.61-25.269-13.343-10.231-30.116,22.281-34.464,32.8C224.177,5.75,211.064-.482,198.015-3.078l-.329-.065-.2.263a2.021,2.021,0,0,0-.24,1.065l-.052.487.482.1A90.291,90.291,0,0,1,219.722,6.41c-4.314,9.613-17.03,32.052-4.234,38.957,9.2,4.959,12.3-9.56,10.038-21.879a80.969,80.969,0,0,0-5.149-16.752,141.642,141.642,0,0,1,26.269,17.232C241.555,29.659,232.77,38.577,236.8,46.5c3.761,7.405,11.7.42,11.861-9.642a55.467,55.467,0,0,0-1.3-12.3A179.114,179.114,0,0,1,264.19,40.421c-6.207,8.538-20.495,28-8.668,36.379,8.737,6.172,11.086-12.034,10.7-20.628a137.093,137.093,0,0,0-1.437-15.1c8.82,9.558,15.564,18.971,19.266,26.236C273.434,71.5,256.4,84.06,256.956,96.05c.348,7.816,8.59,4.715,12.574,1.406,4.541-3.765,12.075-16.318,15.234-28.684.035.074.071.147.1.22-3.267,29.305,12.065,48.692,20.883,49.343,7.6.56,10.2-6.342,9.677-13.478-.617-8.19-10.333-23.939-27.424-36.216a71.668,71.668,0,0,0,9.743,4.068c6.828,2.127,27.275,8.592,26.667-5.045C323.619,50.429,294.565,61.445,285.755,66.471Z" fill="url(#linear-gradient-3)"/>
      <path id="Path_1990" data-name="Path 1990" d="M80.208,134.347c-2.393-4.668-8.045-3.952-10.2.57a6.765,6.765,0,0,0-.57,1.781c-5.122,1.654-9.692,4.6-12.4,8.151a35.113,35.113,0,0,0-13.921,2.9,128.145,128.145,0,0,1-8.819-36.839l-.041-.535-1.848.146.044.536a124.389,124.389,0,0,0,4.266,23.564c.4,1.42.838,2.832,1.286,4.245a23.716,23.716,0,0,0-7.536,6.934,36.254,36.254,0,0,0-4.719,9.267c-1.834.12-3.729,1.633-4.957,4.139-4.746,9.674,12.873,9.826,9.461-.131a6.03,6.03,0,0,0-2.678-3.626,34.282,34.282,0,0,1,4.392-8.567,22.051,22.051,0,0,1,6.608-6.209,148.487,148.487,0,0,0,8.074,19.481,30.111,30.111,0,0,0-2.283,2.8,34,34,0,0,0-4.289,8.149c-9.1-1.69-23.447,5.631-28.625,12.811-.01.013-.016.025-.026.039a6.69,6.69,0,0,0-7.452,2.389c-5.514,7.514,13.482,13.033,10.932,1.533a5.339,5.339,0,0,0-1.824-3.038,29.711,29.711,0,0,1,9.9-7.86,35.8,35.8,0,0,0,.219,17.48,31.265,31.265,0,0,0,2.79,6.633c-4.433,2.907-2.151,9.591,2.975,11.628,10.593,4.191,9.954-15.407-.727-12.6-.215.057-.394.137-.594.2-3.931-7.05-4.838-15.435-2.544-24.393,5.409-2.489,10.7-3.6,14.373-3.049a42.3,42.3,0,0,0-1.693,16.737,7,7,0,0,0-2.943,1.736c-2,2-1.836,3.331-.724,5.592,2.673,5.439,11.517,2.908,10.841-3.15a4.879,4.879,0,0,0-5.359-4.456c-.75-7.123.5-17.279,6.269-25.286.529-.734,1.1-1.447,1.688-2.121q.91,1.774,1.871,3.536a36.351,36.351,0,0,0-.336,18.953,31.323,31.323,0,0,0,2.992,7.215,7.12,7.12,0,0,0-2.3,7.184c.675,2.818,2.332,4.113,4.212,4.415-.083.11-.177.195-.26.309a30.177,30.177,0,0,0-4.848,11.036,6.247,6.247,0,0,0-2.088.488c-4.618,1.946-5.59,7.559-1.036,10.161,8.115,4.679,10.068-8.231,4.956-10.37a28.2,28.2,0,0,1,4.495-10.182c.4-.55.807-1.073,1.23-1.564a7.737,7.737,0,0,0,1.156-.381,40.592,40.592,0,0,0,2,21.39c-.22.124-.439.245-.665.4-3.911,2.61-2.734,8.825,1.555,10.414,9.634,3.547,8.517-13.454.823-11.513-1.988-5.685-3.572-13.718-1.448-22.138a7.1,7.1,0,0,0,1.521-1.962c8.04,3.014,16.773,12.131,18.659,23.357a6.947,6.947,0,0,0-1.98.956c-4.239,2.94-4.771,8.724,1.082,9.767,9.377,1.652,8.326-10.334,2.738-10.929-2.013-12.255-11.533-21.787-19.917-24.91a4.848,4.848,0,0,0-.11-1.86,34.237,34.237,0,0,1,3.242-5.627c.138-.192.278-.384.422-.574a165.5,165.5,0,0,0,24.311,24.5c-2.7,8.076.181,16.435,1.975,20.452-1.263,1.336-1.626,3.732-.82,6.406,3.111,10.316,16.118-1.57,6.841-6.541a5.884,5.884,0,0,0-4.4-.773c-1.638-3.717-4.138-11.112-2.029-18.3,1.259,1,2.527,2,3.821,2.961l.359.267a6.039,6.039,0,0,0,.057,6.019c3.84,5.868,10.174,1.521,11.48-3.107a35.621,35.621,0,0,1,3.862,3.916,5.4,5.4,0,0,0-1.429,1.917c-4.663,10.817,15.029,8.961,11.025.544a6.565,6.565,0,0,0-7.984-3.432,40.264,40.264,0,0,0-5.289-5.233c-.243-1.843-1.542-3.456-4.493-4.117a6.006,6.006,0,0,0-1.594-.106c-3.968-2.26-8.118-3.694-11.7-3.534A163.459,163.459,0,0,1,70.846,192.96c9.788-.286,18.813,4.552,24.448,9.47a4.855,4.855,0,0,0,.275,6.851c4.347,4.274,11.8-1.118,9.176-6.58-1.091-2.272-2.041-3.222-4.842-2.886a7.035,7.035,0,0,0-3.315,1.355,42.3,42.3,0,0,0-13.841-8.151,11.806,11.806,0,0,1,.721-1.115c2.006-2.784,5.643-5.687,10.011-8,8.627,3.721,14.768,9.67,17.929,17.226-.178.115-.351.206-.528.34-8.807,6.662,6.209,19.274,9.457,8.357,1.567-5.289-2.28-11.214-7.3-9.523a31.446,31.446,0,0,0-3.491-6.294,35.945,35.945,0,0,0-13.921-11.154c4.67-2.16,9.226-3.273,12.808-3.159A5.337,5.337,0,0,0,109.694,183c7.468,9.113,14.865-9.233,5.549-9.542a6.707,6.707,0,0,0-6.509,4.4c-7.837-.316-21.254,5.281-26.684,12.809a14.711,14.711,0,0,0-1.105,1.778,32.4,32.4,0,0,0-11.619-1.272,162.2,162.2,0,0,1-17.264-24.793c7.331.337,13.437,4.872,16.433,7.547a6.05,6.05,0,0,0-.583,4.468c1.846,10.361,17.181,1.684,8.339-4.474-2.292-1.6-4.687-2-6.35-1.213-3.274-2.963-10.355-8.307-18.887-8.218a151.5,151.5,0,0,1-7.2-15.037,32.857,32.857,0,0,1,16.174-2.611l.009.031c2.114,7.55,9.425,16.457,19.528,20.39-3.964,7.556,11.8,11.162,10.407.376-.744-5.684-6.161-5.627-9.356-1.939-9.424-3.5-16.309-11.572-18.569-18.624a40.618,40.618,0,0,1,16.662,6.955c-2.952,6.746,12.543,11.684,11.554,1.677-.459-4.55-6.178-7.255-9.688-4.127a9.453,9.453,0,0,0-.861.888,41.011,41.011,0,0,0-20.266-7.543,24.782,24.782,0,0,1,10.149-6.3C71.208,144.057,84.562,142.771,80.208,134.347Zm18.281,81.264a6.838,6.838,0,0,0-1.837,1.34l-.326-.243c-1.46-1.086-2.892-2.209-4.307-3.348A24.316,24.316,0,0,1,98.489,215.611ZM64.327,188q-.374.484-.723.97A36.456,36.456,0,0,0,60.8,193.53a8.079,8.079,0,0,0-1.131-1.209c-2.124-1.831-4.245-2.166-5.991-1.57-3.736-6.647-4.758-14.507-2.92-22.9A164.548,164.548,0,0,0,64.327,188Z" fill="url(#linear-gradient-4)"/>
      <path id="Path_1991" data-name="Path 1991" d="M288.643,187.9a87.6,87.6,0,0,0,3.6-14.534c-6.09,3.519-27.777,18.782-19.261,27.006C279.094,206.264,285.812,195.96,288.643,187.9Zm30.684,55.077c10.544,4.238,23.7,5.327,28.8,3.992,4.416-1.175,10.852-5.48,5.436-9.736-8.168-6.439-25.464-.956-34.039,4.414-4.922-6.207-10.455-16.311-15.162-28.48a131.325,131.325,0,0,0,10.587,10.606c6.258,5.689,21.505,15.323,22.315,4.848,1.082-14.3-22.983-15.616-33.215-16.271A173.388,173.388,0,0,1,297,189a57.132,57.132,0,0,0,10.9,7.1c8.9,4.309,18.536.442,13.709-6.143-5.306-7.216-17.459-3.083-24.667-1.194a139.115,139.115,0,0,1-3.574-30.516A81.7,81.7,0,0,0,306.261,170.7c9.826,7.447,23.931,11.141,23.641.864-.407-14.492-26.506-13-36.529-13.532a87.463,87.463,0,0,1,4.106-27.172l.077-.231-2-.672-.078.231a79.385,79.385,0,0,0-3.388,15.653c-6.555.247-23.877,4.242-21.257,13.471,2.245,7.9,11.146.35,14.607-3.81,2.052-2.475,4.622-6.129,6.588-9.113-1.924,17,.585,35.842,5.4,52.893-10.326,4-39.487,22.532-24.371,34.546,7.457,5.935,15.714-7.7,18.518-14.917a161.214,161.214,0,0,0,6.007-19.079,161.333,161.333,0,0,0,10.057,26.438c-6.31,4.889-20.272,16.08-14.727,23.292,4.553,5.938,11.932,2.167,14.362-11.446a69.363,69.363,0,0,0,.623-11.325,91.631,91.631,0,0,0,10.108,16.358c-7.952,8.479-19.857,29.33-8.07,33.237,10.923,3.627,11.541-15.09,10.892-22.178-.35-3.8-.895-7.025-1.57-11.17Zm20.48,40.459c4.145-1.6,4.164-9.886-.525-16.372,10.02,9.631,22.922,9.2,25.378,1.379,1.8-5.746-3.714-10.724-11.636-12.91-9.858-2.712-18.468-2.894-28.368-6.579,1.95,7.845,2.959,16.9,4.3,23.784C330.741,281.859,335.566,285.076,339.807,283.438Z" fill="url(#linear-gradient-5)"/>
      <path id="Path_1992" data-name="Path 1992" d="M-244.762,24.972c-.878-11.806-26.48-4.89-33.08-2.457a87.685,87.685,0,0,0,13.479,6.522C-256.357,32.012-244.139,33.436-244.762,24.972Zm3.218,62.855c2.756,3.17,4.889,5.652,7.585,8.35,5.035,5.03,19.822,16.522,24.016,5.8,4.533-11.561-19.112-15.738-30.715-15.045a91.66,91.66,0,0,0-6.115-18.231,69.3,69.3,0,0,0,9.106,6.761c12.021,6.836,19.638,3.573,17.984-3.724-2-8.874-19.532-5.294-27.326-3.569a161.387,161.387,0,0,0-13.9-24.636,161.116,161.116,0,0,0,18.51,7.58c7.345,2.46,23.1,4.827,23.309-4.7.428-19.3-32.466-8.732-42.144-3.349C-271.262,28.462-284.146,14.486-298.448,5.1c3.552.4,8.005.757,11.22.761,5.411,0,16.9-2.02,12.268-8.795-5.421-7.916-19.568,2.849-23.949,7.731a79.4,79.4,0,0,0-14.2-7.4l-.228-.087L-314.1-.729l.226.088a87.465,87.465,0,0,1,23.518,14.216c-6,8.047-23.833,27.16-12.951,36.739,7.717,6.794,13.9-6.413,14.451-18.73a81.681,81.681,0,0,0-1.335-17.874,139.213,139.213,0,0,1,21.178,22.259c-6.061,4.335-17.008,11.037-14.853,19.731,1.977,7.921,11.114,2.981,13.488-6.613a57.177,57.177,0,0,0,1.516-12.924,173.33,173.33,0,0,1,13.45,20.351c-6.038,8.286-20.416,27.63-8.726,35.943,8.572,6.074,10.913-11.809,10.54-20.259a131.44,131.44,0,0,0-1.386-14.921c6.347,11.4,10.579,22.114,12.2,29.867-9.612,3.16-24.885,12.954-25.157,23.35-.191,6.887,7.235,4.69,10.961,2.046,4.288-3.069,11.861-13.879,15.343-24.695Zm16.635,26.454c-4.431-5.435-10.75-12-15.535-18.517-3.5,9.968-8.861,16.705-13.079,26.019-3.384,7.488-3.085,14.913,2.487,17.2,7.585,3.113,16.165-6.532,15.165-20.394,1.989,7.752,8.372,13.034,12.253,10.871C-219.647,127.247-219.035,121.48-224.909,114.281Z" fill="url(#linear-gradient-6)"/>
      <path id="Path_1993" data-name="Path 1993" d="M-42.626,130.809c.862,4.945,4.353,14.67,9.858,11.854a8.878,8.878,0,0,0,.93-.618c-3.222,2.548-2.619,10.945,3.624,8.658,3.453-1.264,4.4-6.281,1.263-8.367-1.835-1.225-3.328-1.219-4.458-.577,8.286-6.333-6.989-20.808-12.61-24.287A104.831,104.831,0,0,0-42.626,130.809Zm-85.128,135.374c1.6-9.366,1.742-21.014,4.5-27.882-6.528,3.8-14.778,5.763-21.018,7.637-7.2,2.158-11.2,6.152-9.253,9.9,1.911,3.661,9.423,2.245,15.068-2.169-9.075,12.664-7.069,24.484.4,26.026C-133.158,280.7-129.241,274.852-127.754,266.183Zm87.272-37.854c9.235-18.293,1.26-57.945-21.184-73.421C-70.055,177.433-59.363,215.08-40.482,228.329Zm-72.661,1.33c-3.29,5.474-13.064,21.548-2.04,24.527-5.373,1.472-4.664,15.06,3.981,10.646,4.415-2.254,3.263-8.291-.855-10.224,12.519-.286,9.5-25.332,7.116-33.968a204.64,204.64,0,0,0,22.05-28.811,101.934,101.934,0,0,0,2.626,13.11c1.312,4.837,5.673,14.12,10.862,10.922-2.527,3.158.156,11.323,5.829,7.293,3.5-2.5,2.262-6.98-1.647-8.2a4.055,4.055,0,0,0-3.185.118c8.393-7.019-8.451-20.271-14.466-23.272,17.653-27.142,35.365-63.457,49.419-100.536a51.918,51.918,0,0,0,5.63,6.715c1.314,5.967,4.283,10.3,9.732,9.21-4,3.01-2.668,14.149,5.245,10.016,3.761-1.964,3.395-6.651.634-9.165a50.294,50.294,0,0,0,18.767,2.544c-4.517-7.7-9.86-14.313-17.847-17.762-1.785-10.588-9.131-23.846-12.5-29,3.406-10.46,6.441-20.807,9.029-30.866,8.414,16.211,26.591,26.1,45.558,25.7C25.042,44.2,15.149,32.484-14.732,32.833-11.748,21.219-9.347,9.99-7.7-.53l.067-.416-2.326-.369-.066.418c-1.644,10.5-4.041,21.7-7.02,33.286-6.728-1.61-18.084-5.193-22.865,1.618a5.181,5.181,0,0,0-1.12,3.227,5.622,5.622,0,0,0-5.2-2.247C-55,35.6-48.158,49.174-41.81,41.969a4.374,4.374,0,0,0,1.256-3.22c1.722,2.814,7.807,3.579,13.5.68a53.605,53.605,0,0,0,9.949-6.784c-2.494,9.687-5.407,19.639-8.664,29.7-19.215-16.488-51.4-19.821-75.913,3.543,25.745,13.427,50.871,11.587,75.03-.83-2.8,8.505-5.828,17.068-9.062,25.6C-45.014,91.91-67.5,94.62-65.638,107.843a5.081,5.081,0,0,0-6.022-1.92c-4.649,1.771-3.617,7.656.149,9.878a4.371,4.371,0,0,0,2.644.77c-22.319,2.943-36.108,14.911-47.782,29.407,27.767-.092,50.915-8.334,70.319-29.134C-51.844,129.653-57.7,142.1-63.742,153.831c-7.236-3.49-30.485-13.722-36.023-1.544a7.52,7.52,0,0,0-.607,2.081c-.436-1.6-2.028-2.866-4.314-3.282-8.906-1.635-5.947,14.174,1.769,8.429a6,6,0,0,0,2.549-3.55c.956,5.5,11.835,6.5,21.133,4.139a75.585,75.585,0,0,0,15.3-5.9c-6.823,13.219-13.869,25.522-20.907,36.333-17.746-8.5-40.92-8.313-54.414,4.8,17.489,8.02,34.747,6.654,54.223-4.506A201.132,201.132,0,0,1-106.8,219.175c-25.5-9.581-46.261-.123-48.778,7.6a8.651,8.651,0,0,0-.45,3.1,7.171,7.171,0,0,0-4.387-2.5c-10.011-2.068-5.981,14.16,2.367,8.68a5.443,5.443,0,0,0,2.683-3.533c1.514,3.122,5.372,5.039,9.618,5.757,7.582,1.273,24.246-4.2,39.114-17.342A75.418,75.418,0,0,0-113.143,229.659Zm87.21-159.38A101.744,101.744,0,0,0-28.31,82.857a53.572,53.572,0,0,0-.352,7.641c-1.52.138-3.086.327-4.734.618Q-29.454,80.7-25.933,70.279ZM-68.6,116.539a5.465,5.465,0,0,0,2.4-1.4,4.916,4.916,0,0,0,1.717-4.407c3.691,4.273,14.488-3.84,19.211-8.769A119.215,119.215,0,0,0-35.9,91.133c-3.25,8.548-6.7,17.043-10.292,25.4A93.951,93.951,0,0,0-68.6,116.539Z" fill="url(#linear-gradient-7)"/>
      <path id="Path_1994" data-name="Path 1994" d="M437.308,97.507c-4.9,4.44-17.3,21.443-8,26.17-1.227-.427-2.7-.162-4.279,1.376-2.705,2.619-.867,7.381,2.758,8,6.553,1.117,5.625-7.249,1.995-9.171a9,9,0,0,0,1.027.439c5.924,1.772,7.6-8.425,7.546-13.445A105.051,105.051,0,0,0,437.308,97.507ZM559.187,240c7.066-2.87,6.9-14.858-4.322-25.668,6.351,3.318,14,3.35,15.211-.6,1.232-4.039-3.421-7.243-10.894-8.061-6.476-.712-14.944-1.144-22.054-3.7,3.955,6.254,6.2,17.685,9.476,26.6C549.637,236.84,554.549,241.882,559.187,240ZM461.446,131.125c-19.268,19.287-19.925,59.728-7.529,76.045C470.085,190.719,473.777,151.758,461.446,131.125Zm56.186,56.787c17,10.231,34.383,12.594,41.609,9.968,4.046-1.476,7.492-4.06,8.416-7.4a5.445,5.445,0,0,0,3.278,2.987c9.2,3.877,10.226-12.812.755-8.964a7.166,7.166,0,0,0-3.861,3.251,8.67,8.67,0,0,0-1.005-2.967c-3.873-7.136-26.01-12.675-49.347,1.367a201.229,201.229,0,0,1-26.545-23.932c21.177,7.447,38.4,5.662,54.142-5.393-15.647-10.454-38.472-6.441-54.383,5.137-8.881-9.356-18.04-20.18-27.144-31.943a75.554,75.554,0,0,0,16.119,3.033c9.57.632,20.089-2.318,20.033-7.9a6,6,0,0,0,3.15,3.03c8.629,4.251,8.675-11.832.212-8.61-2.173.823-3.507,2.361-3.647,4.008a7.591,7.591,0,0,0-.974-1.936c-7.653-10.973-28.663,3.3-35.148,8.046-8.067-10.439-16.082-21.621-23.825-33.219,22.851,16.94,47.109,20.85,74.433,15.909-14.107-12.14-29.837-21.412-52.319-20.261a4.381,4.381,0,0,0,2.461-1.237c3.3-2.867,3.249-8.842-1.644-9.742a5.081,5.081,0,0,0-5.574,2.98c-.562-13.342-23.17-11.932-32.539-11.48-4.725-7.8-9.254-15.672-13.549-23.529,26.009,7.834,51.052,5.09,73.938-12.78-28.337-18.536-59.389-9.425-75.3,10.271-5.027-9.307-9.7-18.567-13.9-27.642a53.526,53.526,0,0,0,11.014,4.869c6.119,1.821,11.964-.034,13.147-3.114a4.372,4.372,0,0,0,1.82,2.939C429,29.59,433.276,15,424.538,15.987a5.619,5.619,0,0,0-4.71,3.152,5.178,5.178,0,0,0-1.687-2.97c-5.936-5.832-16.454-.251-22.78,2.551-5.028-10.853-9.416-21.436-12.935-31.462l-.14-.4-2.221.784.141.4c3.527,10.048,7.924,20.655,12.963,31.536-29.45,5.072-37.057,18.384-40.093,33.651,18.724-3.052,34.809-16.065,40.146-33.533,4.369,9.424,9.228,19.05,14.474,28.719-2.382,5.679-7.2,20.049-7.04,30.785-7.23,4.838-11.286,12.31-14.333,20.7a50.315,50.315,0,0,0,18-5.9c-2.261,2.972-1.771,7.649,2.284,8.9,8.531,2.631,7.819-8.565,3.343-10.8,5.556.082,7.691-4.714,7.9-10.82a52.111,52.111,0,0,0,4.32-7.625c20.54,33.919,44.539,66.423,66.818,89.917-5.372,4.042-19.535,20.127-10.009,25.508a4.057,4.057,0,0,0-3.154.461c-3.623,1.906-4.032,6.543-.134,8.361,6.309,2.935,7.468-5.581,4.411-8.228,5.683,2.2,8.289-7.715,8.7-12.709a101.984,101.984,0,0,0,.207-13.369,204.727,204.727,0,0,0,26.9,24.338c-.782,8.925.79,34.1,13.154,32.116-3.7,2.648-3.739,8.793,1.012,10.21,9.3,2.774,7.536-10.718,1.986-11.191,10.3-4.928-2.223-18.964-6.451-23.752A75.5,75.5,0,0,0,517.632,187.912Zm-95.547-114.4c-1.673.012-3.248.109-4.768.25a53.428,53.428,0,0,0-1.731-7.452,101.44,101.44,0,0,0-4.617-11.938Q416.318,63.966,422.085,73.513Zm17.192,22.675c-5.047-7.566-9.979-15.3-14.724-23.113a119.271,119.271,0,0,0,11.177,8.957c5.538,3.991,17.627,10.014,20.483,5.143A4.914,4.914,0,0,0,458.7,91.2a5.482,5.482,0,0,0,2.613.938A93.945,93.945,0,0,0,439.277,96.188Z" fill="url(#linear-gradient-8)"/>
    </g>
    <rect id="Rectangle_442" data-name="Rectangle 442" width="567.046" height="308" transform="translate(-0.292 0)" fill="none"/>
    <path id="Path_1995" data-name="Path 1995" d="M741.581,24.858c-1.742-.756-3.447,1.377-2.748,3.041a2.292,2.292,0,0,0,2.954,1.169c1.573-.739,1.464-3.333-.059-4.14C741.679,24.9,741.629,24.879,741.581,24.858Zm459.207,191.119a3.834,3.834,0,0,0,7.572-1.172C1207.762,209.587,1199.779,210.822,1200.788,215.977ZM1356.865,35.058a4.428,4.428,0,0,0,4.573.007,4.065,4.065,0,0,0,1.953-4.228C1361.749,23.79,1350.535,30.989,1356.865,35.058ZM857.3,253.4a3.835,3.835,0,0,0,7.574-1.172C864.276,247.006,856.291,248.241,857.3,253.4ZM628.18,160.24a3.116,3.116,0,0,0,.17,6.229C632.353,166.369,632.182,160.123,628.18,160.24ZM538.856,90.148a5.349,5.349,0,0,0-2.45,3.612,4.808,4.808,0,0,0,1.3,4.132,4.967,4.967,0,0,0,6.173.4C548.953,94.7,544.125,86.864,538.856,90.148ZM924.611,40.654a2.8,2.8,0,0,0,3.375,2.087,2.9,2.9,0,0,0,1.9-3.525C928.821,35.786,923.969,37.174,924.611,40.654ZM1377.1,115.225a3.049,3.049,0,0,0-4.977,1.677,3.3,3.3,0,0,0,2.146,3.67A3.051,3.051,0,0,0,1377.1,115.225Zm-420.807,30.7a5.583,5.583,0,0,0,4.022,6.708,5.679,5.679,0,0,0,6.525-4.368C967.981,142,958.089,139.667,956.292,145.929ZM725.782,92.012a3.8,3.8,0,0,0,7.289,2.123C734.765,89.135,727.029,86.926,725.782,92.012ZM1062.5,85.549a3.115,3.115,0,0,0,.171,6.227C1066.674,91.677,1066.5,85.431,1062.5,85.549Z" fill="#fff"/>
    <g id="Group_565" data-name="Group 565">
      <path id="Path_1996" data-name="Path 1996" d="M1220.092,146.453a27,27,0,0,0-2.9-6.483,100.794,100.794,0,0,1-1.524,11.3c-1.992,8.413-.142,10.36,3.107,20.326-9.757-7.791-9.286-6.819-28.677-13.139,11.113,10.413,17.692,13.295,27.174,15.528-7.692.087-17.9-.3-28.127,10.288a56.518,56.518,0,0,0,18.11-3.424,73.927,73.927,0,0,0,11-4.474c-1.251,4.292-2.072,7.129-1.564,11.066,1.069,8.3,5.121,17.762,5.121,17.762a59.71,59.71,0,0,0,.036-22.7c-.457-2.38-1.26-4.258-1.3-6.7a46.577,46.577,0,0,0,32.809,9.848c-9.982-5.43-20.349-10.978-31.679-11.843a30.5,30.5,0,0,0,4.987-2.838c11.836-8.874,13.433-13.456,15.46-16.544.722-1.1,2.91-3.3,4.364-6.061-9.4,1.641-20.391,15.409-25.854,23.646C1219.2,160.8,1222.106,155.28,1220.092,146.453Z" fill="#fff"/>
      <path id="Path_1997" data-name="Path 1997" d="M1290.818,291.52a27,27,0,0,0,5.589,4.383,100.749,100.749,0,0,1-3.919-10.705c-2.161-8.371-4.705-9.231-12.227-16.532,12.264,2.342,11.4,1.7,31.5-1.748-14.686-4.03-21.85-3.512-31.28-1.067,6.765-3.663,15.969-8.082,20.086-22.215a56.482,56.482,0,0,0-14.424,11.472,73.931,73.931,0,0,0-7.647,9.089c-.895-4.381-1.492-7.273-3.777-10.519-4.814-6.841-12.812-13.326-12.812-13.326a59.7,59.7,0,0,0,10.551,20.095c1.514,1.893,3.1,3.179,4.276,5.322a46.574,46.574,0,0,0-33.615,6.586c11.362.15,23.12.224,33.546-4.294a30.468,30.468,0,0,0-3.088,4.835c-6.333,13.37-5.61,18.168-5.963,21.845-.126,1.309-1.033,4.28-1.034,7.4,7.547-5.832,10.854-23.138,11.845-32.973C1284.917,278.41,1284.921,284.651,1290.818,291.52Z" fill="#fff"/>
      <path id="Path_1998" data-name="Path 1998" d="M706.411,110.5a27.031,27.031,0,0,0,7.1.276,100.9,100.9,0,0,1-9.448-6.377c-6.658-5.516-9.223-4.721-19.6-6.229,11.309-5.29,10.23-5.3,24.495-19.876-14.262,5.342-19.763,9.96-25.97,17.469,3.334-6.934,8.2-15.908,3.254-29.772a56.5,56.5,0,0,0-4.963,17.749,74,74,0,0,0-.87,11.845c-3.292-3.025-5.471-5.018-9.224-6.309-7.91-2.721-18.191-3.288-18.191-3.288a59.7,59.7,0,0,0,20.326,10.1c2.336.646,4.375.759,6.584,1.806a46.572,46.572,0,0,0-23.377,25.038c9.294-6.538,18.864-13.369,24.664-23.141a30.44,30.44,0,0,0,.332,5.728c2.7,14.544,6.1,18.008,7.971,21.194.665,1.135,1.671,4.074,3.5,6.6,2.7-9.149-4.767-25.109-9.727-33.659C693.947,103.334,697.607,108.388,706.411,110.5Z" fill="#fff"/>
      <path id="Path_1999" data-name="Path 1999" d="M1023.219,136.722a267.693,267.693,0,0,0-10.935-33.116c6.393,6.222,18.622,15.753,30.552,11.546-3.921-14.572-23.952-13.077-31.008-12.7a268.933,268.933,0,0,0-27.191-50.592c9.881,9.9,24.729,26.752,44.2,21.555-5.363-21.774-31.072-23.652-45.913-24.031a216.718,216.718,0,0,0-25.055-29.629c12.913,6.67,24.8,11.043,36.015,5.412-8.961-12.22-23.659-11.171-37.182-6.549A165.486,165.486,0,0,0,926.464-4.743l-.244-.145-1.092,1.841.245.146c17.163,10.19,32.52,24.193,45.822,40.394-9.774,8.659-15.328,20.035-8.879,28.8,8.236-6,9.985-16.31,9.724-27.776a246.385,246.385,0,0,1,24.891,37.418c-15.519,9.57-31.924,27.524-23.91,43.009,14.959-4.092,21.514-23.118,24.35-42.21a273.984,273.984,0,0,1,17.877,40.842c-9.452,3.973-24.041,10.454-20.478,23.373,10.1-.633,18.171-14.895,20.787-22.443a247.533,247.533,0,0,1,9.158,34.924c-10.038,4.138-31.682,13.843-31.625,31.482,13.239,2.435,27.185-19.628,31.85-30.255a182.514,182.514,0,0,1,2.983,32.026c-7.169,6.874-26.282,15.9-22.61,30.87,13.167-.1,18.878-20.338,22.995-30.006h.019c-2.4,13.706-9.111,38.629,4.41,46.794,11.316-12.506.388-33.335-3.081-46.785h.044c4.859,8.367,12.853,20.851,23.666,18.338.991-11.885-15.076-14.1-23.3-19.243.028-14.807-2.176-31.192-6.392-48.088,4.026,8.79,8.891,19.253,17.9,19.9C1042.362,149.284,1034.867,141.563,1023.219,136.722Z" fill="url(#linear-gradient-2)"/>
      <path id="Path_2000" data-name="Path 2000" d="M1123.139,66.471a96.416,96.416,0,0,0-8.248-13.311c5.081.149,10.771.378,15.72-.315,19.024-2.706,24.639-12.776,16.609-19.4-9.654-7.97-25.621,10.371-32.833,19.032a161.975,161.975,0,0,0-20.421-22.593,118.5,118.5,0,0,0,13.4,2.159c5.491.515,16.774-.358,15.4-6.989-2.754-13.235-23.3-1.2-29.468,4.208a166.957,166.957,0,0,0-18.976-15,127.077,127.077,0,0,0,19.167-7.985C1104.5.45,1117.909-11.446,1108.1-18.988c-13.342-10.231-30.115,22.281-34.463,32.8C1061.56,5.75,1048.447-.482,1035.4-3.078l-.328-.065-.2.263a2.019,2.019,0,0,0-.241,1.065l-.051.487.481.1a90.3,90.3,0,0,1,22.049,7.642c-4.314,9.613-17.031,32.052-4.235,38.957,9.2,4.959,12.305-9.56,10.039-21.879a81.033,81.033,0,0,0-5.15-16.752,141.651,141.651,0,0,1,26.27,17.232c-5.091,5.691-13.876,14.609-9.845,22.535,3.76,7.405,11.695.42,11.86-9.642a55.533,55.533,0,0,0-1.3-12.3,179.233,179.233,0,0,1,16.823,15.862c-6.207,8.538-20.494,28-8.667,36.379,8.737,6.172,11.086-12.034,10.7-20.628a137.078,137.078,0,0,0-1.438-15.1c8.821,9.558,15.564,18.971,19.267,26.236-10.618,4.191-27.655,16.752-27.1,28.742.348,7.816,8.59,4.715,12.573,1.406,4.542-3.765,12.075-16.318,15.235-28.684.034.074.071.147.105.22-3.268,29.305,12.064,48.692,20.883,49.343,7.6.56,10.2-6.342,9.677-13.478-.618-8.19-10.333-23.939-27.424-36.216a71.709,71.709,0,0,0,9.742,4.068c6.829,2.127,27.276,8.592,26.667-5.045C1161,50.429,1131.948,61.445,1123.139,66.471Z" fill="url(#linear-gradient-3)"/>
      <path id="Path_2001" data-name="Path 2001" d="M917.591,134.347c-2.393-4.668-8.044-3.952-10.2.57a6.727,6.727,0,0,0-.57,1.781c-5.123,1.654-9.692,4.6-12.405,8.151a35.113,35.113,0,0,0-13.921,2.9,128.112,128.112,0,0,1-8.818-36.839l-.042-.535-1.848.146.044.536a124.4,124.4,0,0,0,4.267,23.564c.4,1.42.837,2.832,1.286,4.245a23.729,23.729,0,0,0-7.537,6.934,36.285,36.285,0,0,0-4.719,9.267c-1.834.12-3.729,1.633-4.957,4.139-4.746,9.674,12.873,9.826,9.462-.131a6.034,6.034,0,0,0-2.678-3.626,34.247,34.247,0,0,1,4.392-8.567,22.051,22.051,0,0,1,6.608-6.209,148.478,148.478,0,0,0,8.073,19.481,30.115,30.115,0,0,0-2.283,2.8,34.038,34.038,0,0,0-4.289,8.149c-9.1-1.69-23.447,5.631-28.624,12.811-.01.013-.017.025-.027.039a6.691,6.691,0,0,0-7.452,2.389c-5.513,7.514,13.483,13.033,10.933,1.533a5.34,5.34,0,0,0-1.825-3.038,29.726,29.726,0,0,1,9.9-7.86,35.813,35.813,0,0,0,.218,17.48,31.265,31.265,0,0,0,2.79,6.633c-4.433,2.907-2.151,9.591,2.976,11.628,10.592,4.191,9.954-15.407-.728-12.6-.214.057-.394.137-.593.2-3.931-7.05-4.838-15.435-2.544-24.393,5.409-2.489,10.7-3.6,14.372-3.049a42.341,42.341,0,0,0-1.693,16.737,7.009,7.009,0,0,0-2.943,1.736c-1.995,2-1.836,3.331-.724,5.592,2.673,5.439,11.517,2.908,10.842-3.15a4.879,4.879,0,0,0-5.359-4.456c-.751-7.123.495-17.279,6.268-25.286.529-.734,1.1-1.447,1.689-2.121q.909,1.774,1.87,3.536a36.34,36.34,0,0,0-.335,18.953,31.366,31.366,0,0,0,2.991,7.215,7.12,7.12,0,0,0-2.295,7.184c.675,2.818,2.333,4.113,4.213,4.415-.084.11-.178.195-.26.309a30.16,30.16,0,0,0-4.848,11.036,6.246,6.246,0,0,0-2.088.488c-4.619,1.946-5.591,7.559-1.037,10.161,8.116,4.679,10.068-8.231,4.956-10.37a28.181,28.181,0,0,1,4.5-10.182c.4-.55.806-1.073,1.23-1.564a7.725,7.725,0,0,0,1.155-.381,40.593,40.593,0,0,0,2,21.39c-.22.124-.439.245-.666.4-3.91,2.61-2.733,8.825,1.556,10.414,9.633,3.547,8.517-13.454.823-11.513-1.988-5.685-3.573-13.718-1.448-22.138a7.115,7.115,0,0,0,1.521-1.962c8.039,3.014,16.772,12.131,18.659,23.357a6.951,6.951,0,0,0-1.981.956c-4.238,2.94-4.771,8.724,1.083,9.767,9.376,1.652,8.326-10.334,2.737-10.929-2.012-12.255-11.533-21.787-19.916-24.91a4.869,4.869,0,0,0-.111-1.86,34.172,34.172,0,0,1,3.243-5.627c.137-.192.277-.384.421-.574a165.555,165.555,0,0,0,24.312,24.5c-2.7,8.076.18,16.435,1.975,20.452-1.264,1.336-1.627,3.732-.82,6.406,3.111,10.316,16.118-1.57,6.84-6.541a5.884,5.884,0,0,0-4.4-.773c-1.637-3.717-4.137-11.112-2.029-18.3,1.259,1,2.527,2,3.822,2.961l.359.267a6.034,6.034,0,0,0,.057,6.019c3.839,5.868,10.174,1.521,11.48-3.107a35.705,35.705,0,0,1,3.862,3.916,5.4,5.4,0,0,0-1.43,1.917c-4.663,10.817,15.03,8.961,11.026.544a6.565,6.565,0,0,0-7.984-3.432,40.335,40.335,0,0,0-5.29-5.233c-.243-1.843-1.542-3.456-4.492-4.117a6.014,6.014,0,0,0-1.595-.106c-3.968-2.26-8.118-3.694-11.7-3.534A163.456,163.456,0,0,1,908.23,192.96c9.787-.286,18.812,4.552,24.447,9.47a4.856,4.856,0,0,0,.276,6.851c4.346,4.274,11.8-1.118,9.175-6.58-1.09-2.272-2.041-3.222-4.842-2.886a7.039,7.039,0,0,0-3.315,1.355,42.291,42.291,0,0,0-13.84-8.151,11.785,11.785,0,0,1,.72-1.115c2.007-2.784,5.644-5.687,10.011-8,8.628,3.721,14.768,9.67,17.929,17.226-.177.115-.351.206-.528.34-8.807,6.662,6.209,19.274,9.457,8.357,1.568-5.289-2.279-11.214-7.3-9.523a31.4,31.4,0,0,0-3.492-6.294,35.945,35.945,0,0,0-13.921-11.154c4.671-2.16,9.226-3.273,12.808-3.159A5.338,5.338,0,0,0,947.078,183c7.468,9.113,14.864-9.233,5.549-9.542a6.708,6.708,0,0,0-6.51,4.4c-7.836-.316-21.254,5.281-26.683,12.809a14.722,14.722,0,0,0-1.106,1.778,32.4,32.4,0,0,0-11.618-1.272,162.055,162.055,0,0,1-17.264-24.793c7.331.337,13.436,4.872,16.433,7.547a6.045,6.045,0,0,0-.584,4.468c1.846,10.361,17.182,1.684,8.339-4.474-2.291-1.6-4.687-2-6.349-1.213-3.274-2.963-10.356-8.307-18.888-8.218a151.724,151.724,0,0,1-7.195-15.037,32.853,32.853,0,0,1,16.173-2.611l.009.031c2.114,7.55,9.425,16.457,19.529,20.39-3.964,7.556,11.8,11.162,10.407.376-.745-5.684-6.162-5.627-9.357-1.939-9.424-3.5-16.309-11.572-18.569-18.624a40.613,40.613,0,0,1,16.662,6.955c-2.952,6.746,12.543,11.684,11.555,1.677-.459-4.55-6.179-7.255-9.689-4.127a9.311,9.311,0,0,0-.86.888,41.014,41.014,0,0,0-20.266-7.543,24.771,24.771,0,0,1,10.148-6.3C908.591,144.057,921.946,142.771,917.591,134.347Zm18.281,81.264a6.849,6.849,0,0,0-1.836,1.34l-.327-.243c-1.459-1.086-2.891-2.209-4.307-3.348A24.3,24.3,0,0,1,935.872,215.611ZM901.711,188q-.374.484-.724.97a36.447,36.447,0,0,0-2.8,4.564,8.089,8.089,0,0,0-1.132-1.209c-2.123-1.831-4.244-2.166-5.991-1.57-3.735-6.647-4.758-14.507-2.919-22.9A164.548,164.548,0,0,0,901.711,188Z" fill="url(#linear-gradient-4)"/>
      <path id="Path_2002" data-name="Path 2002" d="M1126.026,187.9a87.607,87.607,0,0,0,3.6-14.534c-6.09,3.519-27.777,18.782-19.26,27.006C1116.478,206.264,1123.195,195.96,1126.026,187.9Zm30.685,55.077c10.543,4.238,23.7,5.327,28.8,3.992,4.416-1.175,10.853-5.48,5.436-9.736-8.168-6.439-25.464-.956-34.038,4.414-4.923-6.207-10.455-16.311-15.162-28.48a131.306,131.306,0,0,0,10.586,10.606c6.258,5.689,21.506,15.323,22.316,4.848,1.082-14.3-22.984-15.616-33.216-16.271A173.53,173.53,0,0,1,1134.382,189a57.144,57.144,0,0,0,10.906,7.1c8.9,4.309,18.536.442,13.709-6.143-5.307-7.216-17.459-3.083-24.668-1.194a139.176,139.176,0,0,1-3.574-30.516,81.71,81.71,0,0,0,12.89,12.455c9.826,7.447,23.931,11.141,23.64.864-.407-14.492-26.506-13-36.529-13.532a87.431,87.431,0,0,1,4.107-27.172l.077-.231-2-.672-.078.231a79.312,79.312,0,0,0-3.389,15.653c-6.554.247-23.877,4.242-21.256,13.471,2.245,7.9,11.145.35,14.606-3.81,2.052-2.475,4.622-6.129,6.589-9.113-1.924,17,.584,35.842,5.4,52.893-10.327,4-39.488,22.532-24.371,34.546,7.456,5.935,15.713-7.7,18.517-14.917a161.008,161.008,0,0,0,6.007-19.079,161.347,161.347,0,0,0,10.058,26.438c-6.31,4.889-20.272,16.08-14.728,23.292,4.554,5.938,11.932,2.167,14.362-11.446a69.362,69.362,0,0,0,.624-11.325,91.514,91.514,0,0,0,10.108,16.358c-7.952,8.479-19.858,29.33-8.07,33.237,10.922,3.627,11.54-15.09,10.892-22.178-.351-3.8-.9-7.025-1.571-11.17Zm20.48,40.459c4.144-1.6,4.164-9.886-.525-16.372,10.019,9.631,22.921,9.2,25.377,1.379,1.8-5.746-3.713-10.724-11.635-12.91-9.859-2.712-18.468-2.894-28.368-6.579,1.949,7.845,2.959,16.9,4.3,23.784C1168.124,281.859,1172.95,285.076,1177.191,283.438Z" fill="url(#linear-gradient-5)"/>
      <path id="Path_2003" data-name="Path 2003" d="M592.621,24.972c-.878-11.806-26.48-4.89-33.08-2.457a87.734,87.734,0,0,0,13.48,6.522C581.026,32.012,593.244,33.436,592.621,24.972Zm3.219,62.855c2.755,3.17,4.889,5.652,7.584,8.35,5.036,5.03,19.822,16.522,24.016,5.8,4.533-11.561-19.111-15.738-30.715-15.045a91.528,91.528,0,0,0-6.115-18.231,69.3,69.3,0,0,0,9.107,6.761c12.02,6.836,19.637,3.573,17.983-3.724-2-8.874-19.532-5.294-27.326-3.569a161.3,161.3,0,0,0-13.9-24.636,161.113,161.113,0,0,0,18.51,7.58c7.345,2.46,23.106,4.827,23.31-4.7.427-19.3-32.467-8.732-42.145-3.349C566.121,28.462,553.237,14.486,538.935,5.1c3.552.4,8.006.757,11.22.761,5.411,0,16.9-2.02,12.268-8.795C557-10.854,542.856-.089,538.475,4.793a79.37,79.37,0,0,0-14.2-7.4l-.227-.087-.763,1.968.227.088a87.464,87.464,0,0,1,23.518,14.216c-6,8.047-23.833,27.16-12.951,36.739,7.717,6.794,13.895-6.413,14.45-18.73a81.621,81.621,0,0,0-1.335-17.874,139.177,139.177,0,0,1,21.179,22.259C562.309,40.3,551.362,47.006,553.518,55.7c1.977,7.921,11.113,2.981,13.488-6.613a57.111,57.111,0,0,0,1.515-12.924,173.332,173.332,0,0,1,13.45,20.351c-6.038,8.286-20.415,27.63-8.725,35.943,8.572,6.074,10.913-11.809,10.539-20.259A131.206,131.206,0,0,0,582.4,57.277c6.348,11.4,10.579,22.114,12.2,29.867-9.611,3.16-24.885,12.954-25.157,23.35-.19,6.887,7.235,4.69,10.962,2.046,4.288-3.069,11.86-13.879,15.343-24.695Zm16.635,26.454c-4.431-5.435-10.75-12-15.536-18.517-3.5,9.968-8.86,16.705-13.079,26.019-3.384,7.488-3.084,14.913,2.487,17.2,7.586,3.113,16.165-6.532,15.166-20.394,1.988,7.752,8.371,13.034,12.252,10.871C617.737,127.247,618.348,121.48,612.475,114.281Z" fill="url(#linear-gradient-6)"/>
      <path id="Path_2004" data-name="Path 2004" d="M794.757,130.809c.862,4.945,4.354,14.67,9.858,11.854a8.9,8.9,0,0,0,.931-.618c-3.222,2.548-2.619,10.945,3.623,8.658,3.453-1.264,4.4-6.281,1.263-8.367-1.835-1.225-3.328-1.219-4.458-.577,8.287-6.333-6.988-20.808-12.61-24.287A105.2,105.2,0,0,0,794.757,130.809ZM709.629,266.183c1.6-9.366,1.742-21.014,4.5-27.882-6.529,3.8-14.779,5.763-21.018,7.637-7.2,2.158-11.2,6.152-9.253,9.9,1.91,3.661,9.422,2.245,15.068-2.169-9.076,12.664-7.069,24.484.4,26.026C704.225,280.7,708.143,274.852,709.629,266.183ZM796.9,228.329c9.234-18.293,1.259-57.945-21.184-73.421C767.329,177.433,778.02,215.08,796.9,228.329Zm-72.662,1.33c-3.29,5.474-13.064,21.548-2.04,24.527-5.372,1.472-4.664,15.06,3.981,10.646,4.415-2.254,3.264-8.291-.854-10.224,12.518-.286,9.5-25.332,7.116-33.968a204.64,204.64,0,0,0,22.049-28.811,102.108,102.108,0,0,0,2.626,13.11c1.313,4.837,5.673,14.12,10.862,10.922-2.526,3.158.156,11.323,5.829,7.293,3.5-2.5,2.262-6.98-1.646-8.2a4.057,4.057,0,0,0-3.186.118c8.394-7.019-8.45-20.271-14.466-23.272,17.653-27.142,35.365-63.457,49.419-100.536a51.924,51.924,0,0,0,5.631,6.715c1.314,5.967,4.282,10.3,9.732,9.21-4,3.01-2.669,14.149,5.244,10.016,3.761-1.964,3.4-6.651.634-9.165a50.3,50.3,0,0,0,18.768,2.544c-4.517-7.7-9.86-14.313-17.848-17.762-1.784-10.588-9.13-23.846-12.5-29,3.407-10.46,6.441-20.807,9.03-30.866,8.414,16.211,26.59,26.1,45.558,25.7-5.753-14.464-15.646-26.177-45.527-25.828,2.984-11.614,5.386-22.843,7.034-33.363l.066-.416-2.326-.369L827.36-.9c-1.645,10.5-4.041,21.7-7.02,33.286-6.729-1.61-18.085-5.193-22.866,1.618a5.181,5.181,0,0,0-1.12,3.227,5.621,5.621,0,0,0-5.2-2.247c-8.771.615-1.925,14.187,4.423,6.982a4.371,4.371,0,0,0,1.257-3.22c1.722,2.814,7.806,3.579,13.494.68a53.58,53.58,0,0,0,9.95-6.784c-2.495,9.687-5.408,19.639-8.665,29.7-19.214-16.488-51.4-19.821-75.913,3.543,25.746,13.427,50.872,11.587,75.031-.83-2.8,8.505-5.829,17.068-9.062,25.6-9.3,1.253-31.785,3.963-29.92,17.186a5.08,5.08,0,0,0-6.021-1.92c-4.65,1.771-3.617,7.656.149,9.878a4.369,4.369,0,0,0,2.643.77c-22.318,2.943-36.107,14.911-47.781,29.407,27.767-.092,50.915-8.334,70.318-29.134-5.513,12.809-11.369,25.259-17.411,36.987-7.237-3.49-30.486-13.722-36.024-1.544a7.589,7.589,0,0,0-.607,2.081c-.436-1.6-2.028-2.866-4.313-3.282-8.907-1.635-5.948,14.174,1.769,8.429a6.011,6.011,0,0,0,2.549-3.55c.956,5.5,11.835,6.5,21.133,4.139a75.554,75.554,0,0,0,15.3-5.9c-6.822,13.219-13.868,25.522-20.907,36.333-17.746-8.5-40.92-8.313-54.413,4.8,17.488,8.02,34.746,6.654,54.223-4.506a201.286,201.286,0,0,1-21.769,28.346c-25.5-9.581-46.262-.123-48.778,7.6a8.654,8.654,0,0,0-.451,3.1,7.171,7.171,0,0,0-4.386-2.5c-10.011-2.068-5.982,14.16,2.366,8.68a5.448,5.448,0,0,0,2.684-3.533c1.514,3.122,5.371,5.039,9.618,5.757,7.582,1.273,24.246-4.2,39.113-17.342A75.423,75.423,0,0,0,724.24,229.659Zm87.21-159.38a101.928,101.928,0,0,0-2.377,12.578,53.566,53.566,0,0,0-.352,7.641c-1.52.138-3.086.327-4.733.618Q807.928,80.7,811.45,70.279Zm-42.666,46.26a5.465,5.465,0,0,0,2.4-1.4,4.914,4.914,0,0,0,1.717-4.407c3.691,4.273,14.489-3.84,19.212-8.769a119.37,119.37,0,0,0,9.369-10.834c-3.25,8.548-6.7,17.043-10.292,25.4A93.959,93.959,0,0,0,768.784,116.539Z" fill="url(#linear-gradient-7)"/>
      <path id="Path_2005" data-name="Path 2005" d="M1274.691,97.507c-4.9,4.44-17.3,21.443-8,26.17-1.228-.427-2.7-.162-4.28,1.376-2.7,2.619-.866,7.381,2.759,8,6.553,1.117,5.624-7.249,1.994-9.171a9.084,9.084,0,0,0,1.027.439c5.924,1.772,7.595-8.425,7.547-13.445A105.045,105.045,0,0,0,1274.691,97.507ZM1396.571,240c7.065-2.87,6.9-14.858-4.323-25.668,6.352,3.318,14,3.35,15.212-.6,1.232-4.039-3.421-7.243-10.894-8.061-6.476-.712-14.945-1.144-22.054-3.7,3.954,6.254,6.2,17.685,9.475,26.6C1387.02,236.84,1391.933,241.882,1396.571,240Zm-97.742-108.879c-19.268,19.287-19.925,59.728-7.529,76.045C1307.469,190.719,1311.161,151.758,1298.829,131.125Zm56.187,56.787c17,10.231,34.382,12.594,41.608,9.968,4.046-1.476,7.493-4.06,8.416-7.4a5.443,5.443,0,0,0,3.279,2.987c9.2,3.877,10.225-12.812.755-8.964a7.172,7.172,0,0,0-3.862,3.251,8.647,8.647,0,0,0-1-2.967c-3.874-7.136-26.01-12.675-49.347,1.367a201.172,201.172,0,0,1-26.546-23.932c21.177,7.447,38.4,5.662,54.142-5.393-15.646-10.454-38.471-6.441-54.382,5.137-8.882-9.356-18.04-20.18-27.145-31.943a75.554,75.554,0,0,0,16.119,3.033c9.571.632,20.09-2.318,20.033-7.9a6.005,6.005,0,0,0,3.15,3.03c8.63,4.251,8.676-11.832.212-8.61-2.172.823-3.507,2.361-3.647,4.008a7.557,7.557,0,0,0-.974-1.936c-7.653-10.973-28.663,3.3-35.147,8.046-8.068-10.439-16.083-21.621-23.825-33.219,22.85,16.94,47.109,20.85,74.432,15.909-14.107-12.14-29.836-21.412-52.318-20.261a4.376,4.376,0,0,0,2.46-1.237c3.3-2.867,3.25-8.842-1.643-9.742a5.081,5.081,0,0,0-5.574,2.98c-.562-13.342-23.17-11.932-32.539-11.48-4.725-7.8-9.255-15.672-13.55-23.529,26.009,7.834,51.053,5.09,73.939-12.78-28.338-18.536-59.39-9.425-75.3,10.271-5.028-9.307-9.7-18.567-13.9-27.642a53.527,53.527,0,0,0,11.014,4.869c6.119,1.821,11.964-.034,13.148-3.114a4.371,4.371,0,0,0,1.819,2.939c7.549,5.936,11.822-8.652,3.085-7.667a5.622,5.622,0,0,0-4.711,3.152,5.182,5.182,0,0,0-1.686-2.97c-5.936-5.832-16.455-.251-22.78,2.551-5.029-10.853-9.416-21.436-12.936-31.462l-.14-.4-2.22.784.141.4c3.527,10.048,7.923,20.655,12.962,31.536-29.449,5.072-37.056,18.384-40.093,33.651,18.725-3.052,34.809-16.065,40.147-33.533,4.368,9.424,9.228,19.05,14.473,28.719-2.381,5.679-7.2,20.049-7.039,30.785-7.231,4.838-11.287,12.31-14.334,20.7a50.309,50.309,0,0,0,18-5.9c-2.26,2.972-1.77,7.649,2.284,8.9,8.531,2.631,7.82-8.565,3.343-10.8,5.556.082,7.691-4.714,7.9-10.82a52.016,52.016,0,0,0,4.321-7.625c20.54,33.919,44.539,66.423,66.818,89.917-5.372,4.042-19.536,20.127-10.01,25.508a4.058,4.058,0,0,0-3.154.461c-3.623,1.906-4.031,6.543-.133,8.361,6.309,2.935,7.467-5.581,4.41-8.228,5.683,2.2,8.289-7.715,8.7-12.709a102.161,102.161,0,0,0,.207-13.369,204.6,204.6,0,0,0,26.9,24.338c-.783,8.925.79,34.1,13.153,32.116-3.7,2.648-3.738,8.793,1.012,10.21,9.3,2.774,7.537-10.718,1.986-11.191,10.3-4.928-2.223-18.964-6.45-23.752A75.6,75.6,0,0,0,1355.016,187.912Zm-95.548-114.4c-1.673.012-3.247.109-4.767.25a53.711,53.711,0,0,0-1.731-7.452,101.81,101.81,0,0,0-4.617-11.938Q1253.7,63.966,1259.468,73.513Zm17.192,22.675c-5.046-7.566-9.978-15.3-14.724-23.113a119.521,119.521,0,0,0,11.177,8.957c5.538,3.991,17.627,10.014,20.483,5.143a4.915,4.915,0,0,0,2.487,4.023,5.476,5.476,0,0,0,2.612.938A93.954,93.954,0,0,0,1276.66,96.188Z" fill="url(#linear-gradient-8)"/>
    </g>
    <rect id="Rectangle_443" data-name="Rectangle 443" width="911.637" height="308" transform="translate(492.501 0)" fill="none"/>
    <path id="Path_2006" data-name="Path 2006" d="M1608.232,24.858c-1.741-.756-3.447,1.377-2.747,3.041a2.292,2.292,0,0,0,2.954,1.169c1.573-.739,1.464-3.333-.06-4.14C1608.331,24.9,1608.281,24.879,1608.232,24.858Zm459.207,191.119a3.835,3.835,0,0,0,7.573-1.172C2074.413,209.587,2066.431,210.822,2067.439,215.977ZM2223.516,35.058a4.428,4.428,0,0,0,4.573.007,4.065,4.065,0,0,0,1.954-4.228C2228.4,23.79,2217.187,30.989,2223.516,35.058ZM1723.953,253.4a3.835,3.835,0,0,0,7.573-1.172C1730.928,247.006,1722.943,248.241,1723.953,253.4ZM1494.831,160.24a3.116,3.116,0,0,0,.17,6.229C1499,166.369,1498.833,160.123,1494.831,160.24Zm-89.324-70.092a5.352,5.352,0,0,0-2.45,3.612,4.814,4.814,0,0,0,1.3,4.132,4.968,4.968,0,0,0,6.173.4C1415.6,94.7,1410.777,86.864,1405.507,90.148Zm385.756-49.494a2.8,2.8,0,0,0,3.375,2.087,2.9,2.9,0,0,0,1.9-3.525C1795.472,35.786,1790.62,37.174,1791.263,40.654Zm452.488,74.571a3.049,3.049,0,0,0-4.977,1.677,3.3,3.3,0,0,0,2.146,3.67A3.051,3.051,0,0,0,2243.751,115.225Zm-420.807,30.7a5.583,5.583,0,0,0,4.022,6.708,5.679,5.679,0,0,0,6.525-4.368C1834.633,142,1824.741,139.667,1822.944,145.929Zm-230.51-53.917a3.8,3.8,0,0,0,7.288,2.123C1601.417,89.135,1593.68,86.926,1592.434,92.012Zm336.717-6.463a3.115,3.115,0,0,0,.171,6.227C1933.326,91.677,1933.156,85.431,1929.151,85.549Z" fill="#fff"/>
    <g id="Group_566" data-name="Group 566">
      <path id="Path_2007" data-name="Path 2007" d="M2086.744,146.453a27.031,27.031,0,0,0-2.9-6.483,100.823,100.823,0,0,1-1.524,11.3c-1.992,8.413-.142,10.36,3.107,20.326-9.757-7.791-9.286-6.819-28.677-13.139,11.113,10.413,17.692,13.295,27.174,15.528-7.693.087-17.9-.3-28.127,10.288a56.515,56.515,0,0,0,18.109-3.424,73.916,73.916,0,0,0,11-4.474c-1.252,4.292-2.072,7.129-1.564,11.066,1.069,8.3,5.12,17.762,5.12,17.762a59.707,59.707,0,0,0,.037-22.7c-.457-2.38-1.261-4.258-1.3-6.7a46.578,46.578,0,0,0,32.809,9.848c-9.982-5.43-20.349-10.978-31.679-11.843a30.445,30.445,0,0,0,4.986-2.838c11.836-8.874,13.434-13.456,15.461-16.544.722-1.1,2.91-3.3,4.363-6.061-9.4,1.641-20.39,15.409-25.853,23.646C2085.851,160.8,2088.757,155.28,2086.744,146.453Z" fill="#fff"/>
      <path id="Path_2008" data-name="Path 2008" d="M2157.47,291.52a27.021,27.021,0,0,0,5.588,4.383,100.905,100.905,0,0,1-3.918-10.705c-2.162-8.371-4.706-9.231-12.227-16.532,12.264,2.342,11.394,1.7,31.5-1.748-14.687-4.03-21.851-3.512-31.28-1.067,6.764-3.663,15.968-8.082,20.085-22.215a56.5,56.5,0,0,0-14.424,11.472,74.015,74.015,0,0,0-7.647,9.089c-.894-4.381-1.491-7.273-3.776-10.519-4.815-6.841-12.812-13.326-12.812-13.326a59.687,59.687,0,0,0,10.551,20.095c1.514,1.893,3.1,3.179,4.276,5.322a46.577,46.577,0,0,0-33.616,6.586c11.363.15,23.121.224,33.547-4.294a30.455,30.455,0,0,0-3.089,4.835c-6.332,13.37-5.609,18.168-5.962,21.845-.126,1.309-1.034,4.28-1.034,7.4,7.547-5.832,10.853-23.138,11.845-32.973C2151.569,278.41,2151.573,284.651,2157.47,291.52Z" fill="#fff"/>
      <path id="Path_2009" data-name="Path 2009" d="M1573.063,110.5a27.03,27.03,0,0,0,7.1.276,100.75,100.75,0,0,1-9.448-6.377c-6.658-5.516-9.223-4.721-19.6-6.229,11.31-5.29,10.23-5.3,24.495-19.876-14.261,5.342-19.762,9.96-25.969,17.469,3.334-6.934,8.2-15.908,3.254-29.772a56.505,56.505,0,0,0-4.963,17.749,73.89,73.89,0,0,0-.87,11.845c-3.292-3.025-5.471-5.018-9.225-6.309-7.909-2.721-18.19-3.288-18.19-3.288a59.7,59.7,0,0,0,20.326,10.1c2.335.646,4.374.759,6.583,1.806a46.576,46.576,0,0,0-23.377,25.038c9.294-6.538,18.865-13.369,24.665-23.141a30.43,30.43,0,0,0,.331,5.728c2.7,14.544,6.1,18.008,7.972,21.194.665,1.135,1.671,4.074,3.5,6.6,2.7-9.149-4.767-25.109-9.727-33.659C1560.6,103.334,1564.259,108.388,1573.063,110.5Z" fill="#fff"/>
      <path id="Path_2010" data-name="Path 2010" d="M1889.871,136.722a268.02,268.02,0,0,0-10.935-33.116c6.393,6.222,18.622,15.753,30.551,11.546-3.92-14.572-23.951-13.077-31.008-12.7a268.929,268.929,0,0,0-27.19-50.592c9.881,9.9,24.728,26.752,44.2,21.555-5.362-21.774-31.072-23.652-45.912-24.031a216.779,216.779,0,0,0-25.055-29.629c12.912,6.67,24.805,11.043,36.014,5.412-8.96-12.22-23.658-11.171-37.182-6.549a165.418,165.418,0,0,0-30.235-23.358l-.243-.145-1.093,1.841.246.146c17.163,10.19,32.52,24.193,45.822,40.394-9.775,8.659-15.329,20.035-8.879,28.8,8.236-6,9.985-16.31,9.723-27.776a246.316,246.316,0,0,1,24.891,37.418c-15.519,9.57-31.923,27.524-23.909,43.009,14.959-4.092,21.514-23.118,24.35-42.21a274.187,274.187,0,0,1,17.877,40.842c-9.452,3.973-24.042,10.454-20.479,23.373,10.1-.633,18.171-14.895,20.787-22.443a247.548,247.548,0,0,1,9.159,34.924c-10.039,4.138-31.682,13.843-31.625,31.482,13.239,2.435,27.184-19.628,31.85-30.255a182.619,182.619,0,0,1,2.983,32.026c-7.17,6.874-26.282,15.9-22.61,30.87,13.167-.1,18.877-20.338,22.995-30.006h.019c-2.4,13.706-9.112,38.629,4.41,46.794,11.316-12.506.387-33.335-3.082-46.785h.044c4.86,8.367,12.853,20.851,23.667,18.338.991-11.885-15.077-14.1-23.3-19.243.028-14.807-2.177-31.192-6.392-48.088,4.025,8.79,8.891,19.253,17.9,19.9C1909.014,149.284,1901.518,141.563,1889.871,136.722Z" fill="url(#linear-gradient-2)"/>
      <path id="Path_2011" data-name="Path 2011" d="M1989.791,66.471a96.416,96.416,0,0,0-8.248-13.311c5.081.149,10.771.378,15.719-.315,19.025-2.706,24.64-12.776,16.61-19.4-9.654-7.97-25.621,10.371-32.833,19.032a162.047,162.047,0,0,0-20.422-22.593,118.531,118.531,0,0,0,13.4,2.159c5.491.515,16.774-.358,15.4-6.989-2.753-13.235-23.3-1.2-29.467,4.208a167.056,167.056,0,0,0-18.976-15,127.119,127.119,0,0,0,19.167-7.985c11.006-5.831,24.419-17.727,14.61-25.269-13.343-10.231-30.116,22.281-34.464,32.8C1928.212,5.75,1915.1-.482,1902.05-3.078l-.328-.065-.2.263a2.02,2.02,0,0,0-.24,1.065l-.052.487.482.1a90.291,90.291,0,0,1,22.048,7.642c-4.314,9.613-17.03,32.052-4.234,38.957,9.2,4.959,12.3-9.56,10.038-21.879a80.972,80.972,0,0,0-5.149-16.752,141.611,141.611,0,0,1,26.269,17.232c-5.091,5.691-13.875,14.609-9.845,22.535,3.761,7.405,11.7.42,11.861-9.642a55.473,55.473,0,0,0-1.3-12.3,179.1,179.1,0,0,1,16.824,15.862c-6.207,8.538-20.495,28-8.668,36.379,8.737,6.172,11.086-12.034,10.7-20.628a136.833,136.833,0,0,0-1.437-15.1c8.82,9.558,15.564,18.971,19.266,26.236-10.617,4.191-27.655,16.752-27.1,28.742.348,7.816,8.59,4.715,12.574,1.406,4.541-3.765,12.075-16.318,15.235-28.684.034.074.07.147.1.22-3.267,29.305,12.065,48.692,20.883,49.343,7.6.56,10.2-6.342,9.677-13.478-.617-8.19-10.332-23.939-27.423-36.216a71.606,71.606,0,0,0,9.742,4.068c6.829,2.127,27.275,8.592,26.667-5.045C2027.654,50.429,1998.6,61.445,1989.791,66.471Z" fill="url(#linear-gradient-3)"/>
      <path id="Path_2012" data-name="Path 2012" d="M1784.243,134.347c-2.393-4.668-8.045-3.952-10.2.57a6.765,6.765,0,0,0-.57,1.781c-5.122,1.654-9.692,4.6-12.4,8.151a35.113,35.113,0,0,0-13.921,2.9,128.145,128.145,0,0,1-8.819-36.839l-.041-.535-1.848.146.044.536a124.383,124.383,0,0,0,4.266,23.564c.4,1.42.838,2.832,1.287,4.245a23.709,23.709,0,0,0-7.537,6.934,36.253,36.253,0,0,0-4.719,9.267c-1.834.12-3.729,1.633-4.957,4.139-4.746,9.674,12.873,9.826,9.461-.131a6.03,6.03,0,0,0-2.678-3.626,34.282,34.282,0,0,1,4.392-8.567,22.05,22.05,0,0,1,6.608-6.209,148.469,148.469,0,0,0,8.074,19.481,30.115,30.115,0,0,0-2.283,2.8,34,34,0,0,0-4.289,8.149c-9.1-1.69-23.447,5.631-28.625,12.811-.01.013-.016.025-.026.039a6.69,6.69,0,0,0-7.452,2.389c-5.514,7.514,13.482,13.033,10.932,1.533a5.339,5.339,0,0,0-1.824-3.038,29.711,29.711,0,0,1,9.9-7.86,35.8,35.8,0,0,0,.219,17.48,31.268,31.268,0,0,0,2.79,6.633c-4.433,2.907-2.151,9.591,2.975,11.628,10.593,4.191,9.954-15.407-.727-12.6-.215.057-.394.137-.593.2-3.932-7.05-4.839-15.435-2.545-24.393,5.409-2.489,10.7-3.6,14.373-3.049a42.321,42.321,0,0,0-1.693,16.737,7,7,0,0,0-2.943,1.736c-2,2-1.836,3.331-.724,5.592,2.673,5.439,11.517,2.908,10.841-3.15a4.879,4.879,0,0,0-5.359-4.456c-.75-7.123.5-17.279,6.269-25.286.529-.734,1.1-1.447,1.688-2.121q.91,1.774,1.871,3.536a36.351,36.351,0,0,0-.336,18.953,31.366,31.366,0,0,0,2.992,7.215,7.12,7.12,0,0,0-2.3,7.184c.675,2.818,2.333,4.113,4.212,4.415-.083.11-.177.195-.26.309a30.158,30.158,0,0,0-4.847,11.036,6.246,6.246,0,0,0-2.089.488c-4.618,1.946-5.59,7.559-1.036,10.161,8.115,4.679,10.068-8.231,4.956-10.37a28.2,28.2,0,0,1,4.495-10.182c.4-.55.807-1.073,1.23-1.564a7.694,7.694,0,0,0,1.156-.381,40.592,40.592,0,0,0,2,21.39c-.219.124-.439.245-.665.4-3.911,2.61-2.734,8.825,1.555,10.414,9.634,3.547,8.518-13.454.823-11.513-1.988-5.685-3.572-13.718-1.448-22.138a7.1,7.1,0,0,0,1.521-1.962c8.04,3.014,16.773,12.131,18.659,23.357a6.947,6.947,0,0,0-1.98.956c-4.239,2.94-4.771,8.724,1.083,9.767,9.376,1.652,8.325-10.334,2.737-10.929-2.013-12.255-11.533-21.787-19.917-24.91a4.85,4.85,0,0,0-.11-1.86,34.235,34.235,0,0,1,3.242-5.627c.138-.192.278-.384.422-.574a165.507,165.507,0,0,0,24.311,24.5c-2.7,8.076.181,16.435,1.976,20.452-1.264,1.336-1.627,3.732-.821,6.406,3.112,10.316,16.118-1.57,6.841-6.541a5.884,5.884,0,0,0-4.4-.773c-1.638-3.717-4.138-11.112-2.029-18.3,1.259,1,2.527,2,3.821,2.961l.36.267a6.037,6.037,0,0,0,.056,6.019c3.84,5.868,10.174,1.521,11.48-3.107a35.629,35.629,0,0,1,3.862,3.916,5.4,5.4,0,0,0-1.429,1.917c-4.663,10.817,15.029,8.961,11.025.544a6.564,6.564,0,0,0-7.984-3.432,40.268,40.268,0,0,0-5.289-5.233c-.243-1.843-1.542-3.456-4.493-4.117a6.006,6.006,0,0,0-1.594-.106c-3.968-2.26-8.118-3.694-11.7-3.534a163.454,163.454,0,0,1-18.665-18.365c9.788-.286,18.813,4.552,24.448,9.47a4.855,4.855,0,0,0,.276,6.851c4.346,4.274,11.8-1.118,9.175-6.58-1.091-2.272-2.041-3.222-4.842-2.886a7.035,7.035,0,0,0-3.315,1.355,42.3,42.3,0,0,0-13.841-8.151,12.009,12.009,0,0,1,.721-1.115c2.006-2.784,5.643-5.687,10.011-8,8.627,3.721,14.768,9.67,17.929,17.226-.178.115-.351.206-.528.34-8.807,6.662,6.209,19.274,9.457,8.357,1.568-5.289-2.28-11.214-7.3-9.523a31.445,31.445,0,0,0-3.491-6.294,35.944,35.944,0,0,0-13.921-11.154c4.67-2.16,9.226-3.273,12.808-3.159a5.336,5.336,0,0,0,1.264,3.308c7.468,9.113,14.865-9.233,5.549-9.542a6.707,6.707,0,0,0-6.509,4.4c-7.836-.316-21.254,5.281-26.684,12.809a14.718,14.718,0,0,0-1.1,1.778,32.4,32.4,0,0,0-11.619-1.272,162.2,162.2,0,0,1-17.264-24.793c7.331.337,13.437,4.872,16.433,7.547a6.05,6.05,0,0,0-.583,4.468c1.846,10.361,17.181,1.684,8.339-4.474-2.292-1.6-4.687-2-6.35-1.213-3.274-2.963-10.355-8.307-18.887-8.218a151.274,151.274,0,0,1-7.195-15.037,32.851,32.851,0,0,1,16.173-2.611l.009.031c2.114,7.55,9.425,16.457,19.528,20.39-3.964,7.556,11.8,11.162,10.407.376-.744-5.684-6.161-5.627-9.356-1.939-9.424-3.5-16.309-11.572-18.569-18.624a40.618,40.618,0,0,1,16.662,6.955c-2.952,6.746,12.543,11.684,11.554,1.677-.458-4.55-6.178-7.255-9.688-4.127a9.456,9.456,0,0,0-.861.888,41.011,41.011,0,0,0-20.266-7.543,24.782,24.782,0,0,1,10.149-6.3C1775.243,144.057,1788.6,142.771,1784.243,134.347Zm18.281,81.264a6.836,6.836,0,0,0-1.837,1.34l-.326-.243c-1.46-1.086-2.891-2.209-4.307-3.348A24.317,24.317,0,0,1,1802.524,215.611ZM1768.362,188q-.374.484-.723.97a36.449,36.449,0,0,0-2.806,4.564,8.079,8.079,0,0,0-1.131-1.209c-2.123-1.831-4.245-2.166-5.991-1.57-3.735-6.647-4.758-14.507-2.92-22.9A164.653,164.653,0,0,0,1768.362,188Z" fill="url(#linear-gradient-4)"/>
      <path id="Path_2013" data-name="Path 2013" d="M1992.678,187.9a87.6,87.6,0,0,0,3.6-14.534c-6.09,3.519-27.777,18.782-19.261,27.006C1983.13,206.264,1989.847,195.96,1992.678,187.9Zm30.684,55.077c10.544,4.238,23.7,5.327,28.8,3.992,4.416-1.175,10.853-5.48,5.436-9.736-8.168-6.439-25.464-.956-34.039,4.414-4.922-6.207-10.455-16.311-15.162-28.48a131.454,131.454,0,0,0,10.587,10.606c6.258,5.689,21.505,15.323,22.315,4.848,1.083-14.3-22.983-15.616-33.215-16.271A173.371,173.371,0,0,1,2001.034,189a57.108,57.108,0,0,0,10.906,7.1c8.9,4.309,18.535.442,13.708-6.143-5.306-7.216-17.459-3.083-24.667-1.194a139.176,139.176,0,0,1-3.574-30.516A81.668,81.668,0,0,0,2010.3,170.7c9.825,7.447,23.93,11.141,23.64.864-.407-14.492-26.506-13-36.529-13.532a87.463,87.463,0,0,1,4.106-27.172l.077-.231-2-.672-.078.231a79.381,79.381,0,0,0-3.388,15.653c-6.555.247-23.877,4.242-21.257,13.471,2.245,7.9,11.146.35,14.607-3.81,2.052-2.475,4.622-6.129,6.589-9.113-1.925,17,.584,35.842,5.4,52.893-10.327,4-39.488,22.532-24.372,34.546,7.457,5.935,15.714-7.7,18.518-14.917a161.19,161.19,0,0,0,6.007-19.079,161.347,161.347,0,0,0,10.057,26.438c-6.309,4.889-20.272,16.08-14.727,23.292,4.553,5.938,11.932,2.167,14.362-11.446a69.362,69.362,0,0,0,.624-11.325,91.57,91.57,0,0,0,10.107,16.358c-7.951,8.479-19.857,29.33-8.069,33.237,10.922,3.627,11.54-15.09,10.891-22.178-.35-3.8-.9-7.025-1.57-11.17Zm20.48,40.459c4.145-1.6,4.164-9.886-.525-16.372,10.02,9.631,22.922,9.2,25.378,1.379,1.8-5.746-3.714-10.724-11.635-12.91-9.859-2.712-18.469-2.894-28.368-6.579,1.949,7.845,2.958,16.9,4.3,23.784C2034.776,281.859,2039.6,285.076,2043.842,283.438Z" fill="url(#linear-gradient-5)"/>
      <path id="Path_2014" data-name="Path 2014" d="M1459.273,24.972c-.878-11.806-26.48-4.89-33.08-2.457a87.694,87.694,0,0,0,13.48,6.522C1447.678,32.012,1459.9,33.436,1459.273,24.972Zm3.219,62.855c2.755,3.17,4.888,5.652,7.584,8.35,5.035,5.03,19.822,16.522,24.016,5.8,4.533-11.561-19.112-15.738-30.715-15.045a91.657,91.657,0,0,0-6.115-18.231,69.3,69.3,0,0,0,9.106,6.761c12.021,6.836,19.638,3.573,17.984-3.724-2-8.874-19.532-5.294-27.326-3.569a161.391,161.391,0,0,0-13.9-24.636,161.113,161.113,0,0,0,18.51,7.58c7.345,2.46,23.1,4.827,23.309-4.7.428-19.3-32.466-8.732-42.144-3.349-10.031-14.605-22.915-28.581-37.217-37.971,3.552.4,8.005.757,11.22.761,5.411,0,16.9-2.02,12.268-8.795-5.421-7.916-19.568,2.849-23.948,7.731a79.369,79.369,0,0,0-14.2-7.4L1390.7-2.7l-.762,1.968.227.088a87.458,87.458,0,0,1,23.517,14.216c-6,8.047-23.833,27.16-12.951,36.739,7.717,6.794,13.9-6.413,14.451-18.73a81.617,81.617,0,0,0-1.335-17.874,139.168,139.168,0,0,1,21.178,22.259c-6.061,4.335-17.008,11.037-14.853,19.731,1.977,7.921,11.114,2.981,13.488-6.613a57.059,57.059,0,0,0,1.516-12.924,173.325,173.325,0,0,1,13.45,20.351c-6.038,8.286-20.416,27.63-8.726,35.943,8.572,6.074,10.913-11.809,10.54-20.259a131.22,131.22,0,0,0-1.386-14.921c6.347,11.4,10.579,22.114,12.2,29.867-9.612,3.16-24.885,12.954-25.157,23.35-.19,6.887,7.235,4.69,10.961,2.046,4.288-3.069,11.861-13.879,15.344-24.695Zm16.634,26.454c-4.431-5.435-10.75-12-15.535-18.517-3.5,9.968-8.861,16.705-13.079,26.019-3.384,7.488-3.085,14.913,2.487,17.2,7.585,3.113,16.165-6.532,15.165-20.394,1.989,7.752,8.372,13.034,12.253,10.871C1484.388,127.247,1485,121.48,1479.126,114.281Z" fill="url(#linear-gradient-6)"/>
      <path id="Path_2015" data-name="Path 2015" d="M1661.409,130.809c.862,4.945,4.353,14.67,9.858,11.854a8.876,8.876,0,0,0,.93-.618c-3.221,2.548-2.619,10.945,3.624,8.658,3.453-1.264,4.4-6.281,1.263-8.367-1.835-1.225-3.328-1.219-4.458-.577,8.286-6.333-6.989-20.808-12.61-24.287A105.019,105.019,0,0,0,1661.409,130.809Zm-85.128,135.374c1.6-9.366,1.742-21.014,4.5-27.882-6.528,3.8-14.778,5.763-21.018,7.637-7.2,2.158-11.2,6.152-9.253,9.9,1.911,3.661,9.423,2.245,15.068-2.169-9.075,12.664-7.069,24.484.4,26.026C1570.877,280.7,1574.794,274.852,1576.281,266.183Zm87.272-37.854c9.235-18.293,1.26-57.945-21.184-73.421C1633.981,177.433,1644.672,215.08,1663.553,228.329Zm-72.661,1.33c-3.29,5.474-13.064,21.548-2.04,24.527-5.372,1.472-4.664,15.06,3.981,10.646,4.415-2.254,3.263-8.291-.855-10.224,12.519-.286,9.5-25.332,7.116-33.968a204.566,204.566,0,0,0,22.05-28.811,102.1,102.1,0,0,0,2.626,13.11c1.312,4.837,5.673,14.12,10.862,10.922-2.527,3.158.156,11.323,5.829,7.293,3.5-2.5,2.262-6.98-1.647-8.2a4.055,4.055,0,0,0-3.185.118c8.393-7.019-8.451-20.271-14.466-23.272,17.653-27.142,35.365-63.457,49.419-100.536a51.909,51.909,0,0,0,5.63,6.715c1.314,5.967,4.283,10.3,9.732,9.21-4,3.01-2.668,14.149,5.245,10.016,3.761-1.964,3.4-6.651.634-9.165a50.3,50.3,0,0,0,18.768,2.544c-4.517-7.7-9.861-14.313-17.848-17.762-1.784-10.588-9.131-23.846-12.5-29,3.406-10.46,6.441-20.807,9.029-30.866,8.415,16.211,26.591,26.1,45.559,25.7-5.753-14.464-15.646-26.177-45.527-25.828,2.984-11.614,5.385-22.843,7.033-33.363l.067-.416-2.326-.369-.066.418c-1.644,10.5-4.041,21.7-7.02,33.286-6.728-1.61-18.084-5.193-22.865,1.618a5.181,5.181,0,0,0-1.12,3.227,5.622,5.622,0,0,0-5.2-2.247c-8.771.615-1.925,14.187,4.423,6.982a4.372,4.372,0,0,0,1.257-3.22c1.722,2.814,7.806,3.579,13.494.68a53.539,53.539,0,0,0,9.949-6.784c-2.494,9.687-5.407,19.639-8.664,29.7-19.215-16.488-51.4-19.821-75.913,3.543,25.745,13.427,50.871,11.587,75.03-.83-2.8,8.505-5.828,17.068-9.061,25.6-9.3,1.253-31.785,3.963-29.92,17.186a5.081,5.081,0,0,0-6.022-1.92c-4.649,1.771-3.617,7.656.149,9.878a4.373,4.373,0,0,0,2.644.77c-22.319,2.943-36.108,14.911-47.781,29.407,27.766-.092,50.914-8.334,70.318-29.134-5.513,12.809-11.369,25.259-17.412,36.987-7.236-3.49-30.485-13.722-36.023-1.544a7.521,7.521,0,0,0-.607,2.081c-.436-1.6-2.028-2.866-4.313-3.282-8.907-1.635-5.948,14.174,1.768,8.429a6,6,0,0,0,2.549-3.55c.956,5.5,11.836,6.5,21.133,4.139a75.564,75.564,0,0,0,15.3-5.9c-6.823,13.219-13.869,25.522-20.907,36.333-17.746-8.5-40.92-8.313-54.413,4.8,17.488,8.02,34.746,6.654,54.222-4.506a201.131,201.131,0,0,1-21.769,28.346c-25.495-9.581-46.261-.123-48.778,7.6a8.671,8.671,0,0,0-.45,3.1,7.171,7.171,0,0,0-4.387-2.5c-10.011-2.068-5.981,14.16,2.367,8.68a5.443,5.443,0,0,0,2.683-3.533c1.515,3.122,5.372,5.039,9.618,5.757,7.583,1.273,24.246-4.2,39.114-17.342A75.423,75.423,0,0,0,1590.892,229.659Zm87.21-159.38a101.735,101.735,0,0,0-2.377,12.578,53.558,53.558,0,0,0-.352,7.641c-1.52.138-3.086.327-4.734.618Q1674.581,80.7,1678.1,70.279Zm-42.666,46.26a5.465,5.465,0,0,0,2.4-1.4,4.916,4.916,0,0,0,1.717-4.407c3.691,4.273,14.488-3.84,19.211-8.769a119.2,119.2,0,0,0,9.369-10.834c-3.25,8.548-6.7,17.043-10.292,25.4A93.95,93.95,0,0,0,1635.436,116.539Z" fill="url(#linear-gradient-7)"/>
      <path id="Path_2016" data-name="Path 2016" d="M2141.343,97.507c-4.9,4.44-17.3,21.443-8,26.17-1.227-.427-2.7-.162-4.279,1.376-2.705,2.619-.867,7.381,2.758,8,6.554,1.117,5.625-7.249,1.995-9.171a9.008,9.008,0,0,0,1.027.439c5.924,1.772,7.595-8.425,7.546-13.445A105.019,105.019,0,0,0,2141.343,97.507ZM2263.222,240c7.066-2.87,6.9-14.858-4.322-25.668,6.351,3.318,14,3.35,15.211-.6,1.232-4.039-3.421-7.243-10.894-8.061-6.475-.712-14.944-1.144-22.053-3.7,3.954,6.254,6.2,17.685,9.475,26.6C2253.672,236.84,2258.584,241.882,2263.222,240Zm-97.741-108.879c-19.268,19.287-19.925,59.728-7.529,76.045C2174.12,190.719,2177.812,151.758,2165.481,131.125Zm56.187,56.787c17,10.231,34.382,12.594,41.608,9.968,4.046-1.476,7.492-4.06,8.416-7.4a5.445,5.445,0,0,0,3.278,2.987c9.2,3.877,10.226-12.812.755-8.964a7.173,7.173,0,0,0-3.861,3.251,8.672,8.672,0,0,0-1.005-2.967c-3.873-7.136-26.01-12.675-49.347,1.367a201.231,201.231,0,0,1-26.545-23.932c21.177,7.447,38.4,5.662,54.142-5.393-15.647-10.454-38.472-6.441-54.383,5.137-8.881-9.356-18.04-20.18-27.144-31.943a75.551,75.551,0,0,0,16.119,3.033c9.57.632,20.089-2.318,20.033-7.9a6,6,0,0,0,3.15,3.03c8.63,4.251,8.675-11.832.212-8.61-2.172.823-3.507,2.361-3.647,4.008a7.588,7.588,0,0,0-.974-1.936c-7.653-10.973-28.663,3.3-35.148,8.046-8.067-10.439-16.082-21.621-23.825-33.219,22.851,16.94,47.109,20.85,74.433,15.909-14.107-12.14-29.836-21.412-52.318-20.261a4.381,4.381,0,0,0,2.46-1.237c3.3-2.867,3.249-8.842-1.644-9.742a5.081,5.081,0,0,0-5.574,2.98c-.562-13.342-23.17-11.932-32.539-11.48-4.724-7.8-9.254-15.672-13.549-23.529,26.009,7.834,51.053,5.09,73.939-12.78-28.338-18.536-59.39-9.425-75.3,10.271-5.027-9.307-9.695-18.567-13.9-27.642a53.523,53.523,0,0,0,11.014,4.869c6.119,1.821,11.964-.034,13.147-3.114a4.372,4.372,0,0,0,1.82,2.939c7.548,5.936,11.822-8.652,3.084-7.667a5.619,5.619,0,0,0-4.71,3.152,5.179,5.179,0,0,0-1.687-2.97c-5.935-5.832-16.454-.251-22.779,2.551-5.029-10.853-9.417-21.436-12.936-31.462l-.14-.4-2.221.784.141.4c3.527,10.048,7.924,20.655,12.963,31.536-29.45,5.072-37.057,18.384-40.093,33.651,18.724-3.052,34.809-16.065,40.147-33.533,4.368,9.424,9.227,19.05,14.473,28.719-2.381,5.679-7.2,20.049-7.039,30.785-7.231,4.838-11.287,12.31-14.334,20.7a50.316,50.316,0,0,0,18-5.9c-2.26,2.972-1.771,7.649,2.284,8.9,8.531,2.631,7.819-8.565,3.343-10.8,5.556.082,7.691-4.714,7.9-10.82a52.023,52.023,0,0,0,4.32-7.625c20.54,33.919,44.539,66.423,66.818,89.917-5.372,4.042-19.535,20.127-10.009,25.508a4.058,4.058,0,0,0-3.154.461c-3.623,1.906-4.032,6.543-.134,8.361,6.309,2.935,7.468-5.581,4.411-8.228,5.683,2.2,8.289-7.715,8.7-12.709a101.926,101.926,0,0,0,.207-13.369,204.687,204.687,0,0,0,26.906,24.338c-.783,8.925.79,34.1,13.153,32.116-3.7,2.648-3.739,8.793,1.012,10.21,9.3,2.774,7.536-10.718,1.986-11.191,10.3-4.928-2.223-18.964-6.451-23.752A75.57,75.57,0,0,0,2221.668,187.912Zm-95.548-114.4c-1.673.012-3.248.109-4.768.25a53.467,53.467,0,0,0-1.731-7.452A101.634,101.634,0,0,0,2115,54.373Q2120.353,63.966,2126.12,73.513Zm17.192,22.675c-5.046-7.566-9.979-15.3-14.724-23.113a119.315,119.315,0,0,0,11.177,8.957c5.538,3.991,17.627,10.014,20.483,5.143a4.916,4.916,0,0,0,2.486,4.023,5.483,5.483,0,0,0,2.613.938A93.954,93.954,0,0,0,2143.312,96.188Z" fill="url(#linear-gradient-8)"/>
    </g>
    <rect id="Rectangle_444" data-name="Rectangle 444" width="560.556" height="308" transform="translate(1359.153 0)" fill="none"/>
  </g>
</svg>
