<svg xmlns="http://www.w3.org/2000/svg" width="139.098" height="63.42" viewBox="0 0 139.098 63.42">
  <g id="Group_563" data-name="Group 563" transform="translate(-8.129 -6.205)">
    <path id="Path_125" data-name="Path 125" d="M19.588,28.827c1.254-.9,3.4-2.274,4.934-3.252a34.522,34.522,0,0,1,6.27-3.361,17.8,17.8,0,0,0,6.446-3.762,4.17,4.17,0,0,0,1.271-3.31,6.25,6.25,0,0,0-.9-2.86A7.379,7.379,0,0,0,32.949,9.2a11.183,11.183,0,0,0-6.872.1c-3.009,1.154-4.565,3.059-5.242,2.959s-1.354-.852-.727-2.057A6.912,6.912,0,0,1,24.5,6.74a21.969,21.969,0,0,1,7.95-.3A20.919,20.919,0,0,1,37.413,8.4c1.48.652,3.411,1.956,3.862,3.862a7.7,7.7,0,0,1-.18,4.488,8,8,0,0,1-2.328,3.688,4.24,4.24,0,0,1,4.22,3.529c.582,3.571-2.037,7.2-1.931,7.353s1.534-.687,2.38-1.189,5.4-3.2,7.909-4.6,4.285-1.772,4.471-.53a2.027,2.027,0,0,1-.571,1.518,11.736,11.736,0,0,1-2.127,1.683A32.363,32.363,0,0,0,49.838,31.5c-.952,1.138-2.565,3.254-2.407,3.651s1.534.08,2.592-.475a18.343,18.343,0,0,0,2.3-1.534,1.337,1.337,0,0,1,1.11.026c.159.133.557.609.45.741a11.712,11.712,0,0,1-1.282.961,16.523,16.523,0,0,1-3.479,1.843,5.118,5.118,0,0,1-3.242.413A1.874,1.874,0,0,1,44.6,34.966a8.285,8.285,0,0,1,1.349-3.7,7.286,7.286,0,0,0-1.443.683c-2.265,1.312-6.477,3.848-7.815,4.131-1.878.4-2.54-.952-2.407-1.666s2.063-1.561,2.883-2.751,3.015-4.961,2.724-7.168a1.412,1.412,0,0,0-1.278-1.243,8.049,8.049,0,0,0-2.981.29,9.629,9.629,0,0,0-1.182,1.277c-1.67,1.833-4.753,5.294-7.811,8.087-1.631,1.488-3.61,3.308-5.368,4.977-2.707,2.567-5.054,4.762-8.386,5.234-5.1.718-4.788-2.857-4.735-3.255a6.222,6.222,0,0,1,1.217-2.2,29.261,29.261,0,0,1,3.915-4.152c1.138-.873,5.051-3.782,6.3-4.685Zm-1.649,4.526c2.142-1.586,6.746-4.576,8.2-5.45a23.234,23.234,0,0,1,3.227-1.745,12.64,12.64,0,0,1-1.806,2.294c-2.217,2.307-5.9,5.687-7.716,7.2a33.563,33.563,0,0,1-6.022,4.407,3.426,3.426,0,0,1-2.655.221,21.772,21.772,0,0,1,3.265-3.9,33.376,33.376,0,0,1,3.507-3.026Zm42.9-1.218c.185.054,1.111.557,1.084.768a3.235,3.235,0,0,1-1.34,2.131,7.59,7.59,0,0,1-3.607,1.017,4.84,4.84,0,0,1,1.467-2.157,10.83,10.83,0,0,1,2.4-1.758Zm2.2-2.062c.132-.026,1.348-.582,1.8-.291a1.2,1.2,0,0,1,.4,1.214,21.235,21.235,0,0,1-.715,2.516c.08.026.847-.662,1.428-.53s.821,1.323-.4,1.8c-1.263.494-2.645.5-3.147.82a13.223,13.223,0,0,1-2.3,1.72,19.693,19.693,0,0,1-2.46.846c-.634.212-1.957.74-2.963-.132s-.264-2.751.344-3.438,1.217-1.3,1.243-1.4a3.076,3.076,0,0,1,1.085-1.879,3.667,3.667,0,0,1,2.089-.846,6.944,6.944,0,0,1,2.408-.741,3.386,3.386,0,0,1,1.19.344Zm7.169,1.905c.74-.5,2.52-2.036,4.1-2.381,1.692-.37,2.522.468,2.54,1.111.026.953-1.276,1.868-1.191,1.931.105.08.475-.106,1.058-.4s2.856-1.588,3.624-1.984,2.141-.053,2.3.582a2.527,2.527,0,0,1-.191,1.578,8.885,8.885,0,0,1-.811,1.358A6.267,6.267,0,0,0,83.8,33.59a5.955,5.955,0,0,0,2.144-.978c.3-.23,1.006.4.477,1.137-.274.384-.909,1.517-4.834,2.26-2,.38-2.853-.155-3.021-.514-.424-.9-.186-1.694-.318-1.772a5.7,5.7,0,0,0-2.009.907c-1.811,1.125-4.446,2.97-5.054,3.034-1.244.132-1.614-1.375-.846-2.194a14.155,14.155,0,0,0,1.49-1.654.947.947,0,0,0,.149-.7c-.131-.133-.793-.053-1.718.5s-2.117,1.4-2.434,1.534a.475.475,0,0,1-.5-.224.9.9,0,0,1,.1-1.126c.344-.278,1.017-.613,1.676-1.028.4-.254.82-.6,1.1-.8Zm2.811-8.855c.019-.476,1.248-1.686,5.078-2.3a50.217,50.217,0,0,1,10.97-.278c3.413.2,5.635.2,6.626.278s5.654,1.053,5.793.973,1.886-1.211,2.9-1.944,2.778-2.2,4.027-3.254a4.672,4.672,0,0,1,3.811-1.27c1.11.258,1.923.992.871,2.242a16.328,16.328,0,0,1-2.968,2.371c-1.653,1.092-3.463,2.083-3.517,2.094-.1.02,1.527.178,3.154.317a29.763,29.763,0,0,0,4.483.044c1.675-.107,3.767-.419,5.317-.58,3.432-.357,4.483-.337,7.876-.457s8.827-.734,11.723-1.17,6.011-1.311,7.024-1.112,1.126.912,1.011,1.31a1.1,1.1,0,0,1-.6.589,15.452,15.452,0,0,1-3.706.74c-1.177.166-3.194.534-5.676.776-4.114.4-9.342.66-12.4.87-2.315.16-7.121,1.037-11.486,1.087a68.59,68.59,0,0,1-9.2-.631A14.65,14.65,0,0,0,101.3,26.11c-.862.881-1.722,2.048-2.374,2.785-.724.822-1.587,1.841-2.422,2.7-1.059,1.086-2.1,1.995-3.033,2.838-1.665,1.508-4.036,3.94-5.02,4.7s-1.725.793-2.34.337a1.445,1.445,0,0,1,.2-2.142c.675-.575,2.281-2.023,2.956-2.619s1.7-1.15,2.261-1.726,1.469-1.745,2.283-2.52a23.176,23.176,0,0,0,2.461-2.539c.457-.594,1.48-1.98,2.231-3.028.453-.632.843-1.218.843-1.218a42.274,42.274,0,0,0-5.991-1.051c-2.219-.145-6.568-.555-8.253-.555a48.1,48.1,0,0,0-7.186.794c-.961.317-1.136.564-1.147.614-.031.143.506.3.943.551a1.162,1.162,0,0,1,.585,1.174c-.218.893-1.924.437-2.261.3a9.8,9.8,0,0,1-2.342-1.15,1.513,1.513,0,0,1-.673-1.231Zm35.51,6.11a10.309,10.309,0,0,0,1.19-.674c.338-.179,1.686-.12,1.586.893s-1.8,2.341-2,3.015.694,1.23,1.408.834,1.091-.814,1.429-.635.733.357.316,1.051A3.9,3.9,0,0,1,109.6,35.3a4.149,4.149,0,0,1-2.262-.377c-.415-.219-.376-.417-.614-.417a2.159,2.159,0,0,0-.68.406,11.2,11.2,0,0,1-2.017,1.4c-1.111.5-3.493.475-4.029-.457a2.113,2.113,0,0,1,.536-2.778c.934-.911,3.036-2.856,3.869-3.451A3.587,3.587,0,0,1,107,28.6c.932.179,1.147.748,1.527.635Zm-3.908,3.194c.794-.654,2.075-1.786,2.261-1.607.152.146.115.26.023.45a7.182,7.182,0,0,1-1.43,1.574,9.224,9.224,0,0,1-1.777,1.286.935.935,0,0,1-.763.1c-.277-.179.893-1.151,1.686-1.805Zm12-.218c.991-.3,2.361-.753,3.471-1.17a11.944,11.944,0,0,1,3.395-.754c.971-.04,1.667.443,1.228,1.091a4.422,4.422,0,0,1-2.558,1.925c-.666.147-1.4.237-1.931.386-.47.133-.78.327-.828.466-.1.3.595.059.874-.02a18.268,18.268,0,0,1,3.451-.437,8.279,8.279,0,0,0,2.877-.238c.594-.258.951-.695,1.309-.674s.715.457.179.912a5.121,5.121,0,0,1-1.9,1.111,13.756,13.756,0,0,0-1.9.67,5.939,5.939,0,0,0-1.14.858c-1.053.932-4.959,4.284-7.756,6.863s-7.361,7.3-9.008,8.849-3.273,2.915-3.888,3.71a11.326,11.326,0,0,1-1.964,2.163c-.792.614-2.022,1.725-2.954,1.885a6.51,6.51,0,0,1-2.126.134,1.465,1.465,0,0,1-1.326-1.148,2.413,2.413,0,0,1,.521-1.178,20.189,20.189,0,0,1,1.681-2.353c.494-.575,1.169-1.289,2.44-2.659s3.571-3.61,5.633-5.575a50.138,50.138,0,0,1,6.786-5.613,32.018,32.018,0,0,1,3.074-1.527c.6-.358,2.2-1.37,3.412-1.985s1.587-.892,1.746-1.268.06-.358-.417-.318a25.889,25.889,0,0,1-3.294.555c-1.09,0-1.568-.436-1.29-1.15s.894-1.667.815-1.687a8.363,8.363,0,0,1-1.471.723.53.53,0,0,1-.673-.286c-.119-.417.655-1.092,1.191-1.369a14.245,14.245,0,0,1,2.341-.892Zm-4.345,11.149c.02.04-3.947,3.729-5.118,5s-3.413,3.653-4.96,5.12a41.284,41.284,0,0,1-4.3,3.564c-.73.491-1.28.627-1.351.5a45.673,45.673,0,0,1,3.075-3.788,44.388,44.388,0,0,1,3.986-3.593c1.272-1.05,4.723-3.729,6.093-4.84a29.379,29.379,0,0,1,2.577-1.962Zm21.5-11.507a4.513,4.513,0,0,1,.933-1.348,2.1,2.1,0,0,1,1.31-.755c.515-.06.813-.079.694.159a2.305,2.305,0,0,1-.734.893,9.247,9.247,0,0,1-1.349.635c-.336.119-.5.178-.594.3s-.278.238-.259.12Zm-2.26-.338a3.872,3.872,0,0,1,1.011-1.825,10.736,10.736,0,0,1,2.956-2.142c.971-.357,3.611-.416,4.068.913s-.562,2.46-1.747,3.392a12.725,12.725,0,0,1-2.08,1.337c-1.129.58-2.454.98-2.444,1.084a2.751,2.751,0,0,0,2.065.237,10.012,10.012,0,0,0,3.212-1.051c.834-.477,1.13-.695,1.509-.635s.793.6.179,1.31a9.916,9.916,0,0,1-6.013,2.46,3.282,3.282,0,0,1-1.987-.448A3.417,3.417,0,0,1,131,34.133c-.139-.02-1.211,1.13-2.024.457-.335-.28-.111-.623.057-.83a3.984,3.984,0,0,1,.876-.64c.3-.218.842-.605,1.112-.853a1.328,1.328,0,0,0,.5-.754Z" transform="translate(0)" fill="#9c7e49" fill-rule="evenodd"/>
    <g id="Group_55" data-name="Group 55" transform="translate(42.513 63.488)">
      <path id="Path_126" data-name="Path 126" d="M88.934,146.6h.121c.311,0,.64-.043.64-.492v-4.529c0-.45-.329-.493-.64-.493h-.121v-.26c.346,0,.864.035,1.305.035.467,0,1.02-.035,1.374-.035v.26h-.1c-.259,0-.708.008-.708.493V146.1c0,.483.449.492.708.492h.1v.259c-.354,0-.907-.034-1.374-.034-.441,0-.96.034-1.305.034Zm3.509-5.773c.371,0,.734.035,1.106.035.389,0,.769-.035,1.158-.035v.26h-.112a2.008,2.008,0,0,0-1.391.769l-1.365,1.478,2.221,2.791a1,1,0,0,0,.787.475v.259c-.285,0-.588-.017-.882-.017-.277,0-.544.017-.821.017a4.186,4.186,0,0,0-.449-.648l-1.867-2.333,1.815-2.022c.112-.113.38-.406.38-.588s-.371-.181-.484-.181h-.095Z" transform="translate(-88.934 -140.823)" fill="#9c7e49"/>
      <path id="Path_127" data-name="Path 127" d="M108.929,147.145a2.824,2.824,0,0,0-.154.547c0,.211.295.246.526.246h.077v.21c-.28-.014-.568-.028-.849-.028-.253,0-.506.014-.758.028v-.21h.042a.637.637,0,0,0,.611-.456l1.123-3.221a5.9,5.9,0,0,0,.26-.871,3.658,3.658,0,0,0,.639-.3.169.169,0,0,1,.056-.014c.021,0,.035,0,.049.022.021.056.042.119.063.175l1.291,3.671c.084.245.168.506.26.716a.445.445,0,0,0,.463.281h.043v.21c-.316-.014-.632-.028-.969-.028s-.695.014-1.053.028v-.21h.077c.162,0,.435-.028.435-.2a2.25,2.25,0,0,0-.14-.506l-.274-.814h-1.594Zm1.025-3.11h-.014l-.653,1.986H110.6Z" transform="translate(-99.755 -142.116)" fill="#9c7e49"/>
      <path id="Path_128" data-name="Path 128" d="M125.722,147.592c0,.568.309.583.667.583h.112v.21c-.358,0-.709-.028-1.067-.028-.386,0-.765.028-1.165.028v-.21h.112c.211,0,.443-.007.443-.568v-3.355c0-.47-.134-.554-.471-.554h-.084v-.211c.253,0,.625.028.983.028s.709-.028,1.025-.028c.954,0,1.649.316,1.649,1.34a1.4,1.4,0,0,1-1.354,1.425c-.218.014-.4.014-.562.014v-.211h.147c.568,0,.828-.506.828-1.2a.985.985,0,0,0-1.06-1.116h-.2Z" transform="translate(-109.233 -142.353)" fill="#9c7e49"/>
      <path id="Path_129" data-name="Path 129" d="M137.633,147.145a2.824,2.824,0,0,0-.154.547c0,.211.295.246.527.246h.077v.21c-.281-.014-.568-.028-.849-.028-.253,0-.506.014-.758.028v-.21h.042a.637.637,0,0,0,.611-.456l1.123-3.221a5.891,5.891,0,0,0,.26-.871,3.628,3.628,0,0,0,.639-.3.172.172,0,0,1,.056-.014c.021,0,.035,0,.049.022.021.056.042.119.063.175l1.291,3.671c.084.245.169.506.26.716a.445.445,0,0,0,.463.281h.042v.21c-.316-.014-.632-.028-.968-.028s-.695.014-1.053.028v-.21h.077c.161,0,.435-.028.435-.2a2.274,2.274,0,0,0-.14-.506l-.274-.814h-1.594Zm1.025-3.11h-.014l-.653,1.986H139.3Z" transform="translate(-116.245 -142.116)" fill="#9c7e49"/>
      <path id="Path_130" data-name="Path 130" d="M154.5,147.7c0,.28.2.365.421.393a5.193,5.193,0,0,0,.927-.014,1.008,1.008,0,0,0,.673-.379,1.573,1.573,0,0,0,.218-.505h.2c-.077.4-.175.793-.26,1.192-.617,0-1.235-.028-1.853-.028s-1.235.028-1.853.028v-.21h.1c.253,0,.526-.035.526-.47V144.1c0-.365-.274-.4-.526-.4h-.1v-.211c.372,0,.737.028,1.109.028s.709-.028,1.067-.028v.211h-.175c-.267,0-.477.006-.477.379Z" transform="translate(-125.723 -142.353)" fill="#9c7e49"/>
      <path id="Path_131" data-name="Path 131" d="M167.181,144.209c0-.506-.26-.512-.541-.512h-.084v-.211c.3,0,.674.028,1.116.028.421,0,.772-.028,1.053-.028v.211h-.084c-.281,0-.561.006-.561.512v2.422c0,.891.33,1.509,1.334,1.509.927,0,1.334-.59,1.334-1.537v-2.394c0-.506-.266-.512-.506-.512h-.14v-.211c.28,0,.568.028.849.028s.541-.028.814-.028v.211h-.147c-.19,0-.45.006-.45.512v2.239c0,1.586-.842,2.042-1.888,2.042-1.348,0-2.1-.491-2.1-1.748Z" transform="translate(-133.526 -142.353)" fill="#9c7e49"/>
      <path id="Path_132" data-name="Path 132" d="M183.569,147.145a2.846,2.846,0,0,0-.154.547c0,.211.294.246.526.246h.077v.21c-.281-.014-.568-.028-.849-.028-.253,0-.506.014-.758.028v-.21h.042a.637.637,0,0,0,.611-.456l1.123-3.221a5.951,5.951,0,0,0,.26-.871,3.658,3.658,0,0,0,.639-.3.171.171,0,0,1,.056-.014c.021,0,.035,0,.049.022.021.056.042.119.063.175l1.291,3.671c.085.245.169.506.26.716a.445.445,0,0,0,.463.281h.042v.21c-.316-.014-.632-.028-.969-.028s-.695.014-1.053.028v-.21h.077c.162,0,.435-.028.435-.2a2.25,2.25,0,0,0-.14-.506l-.273-.814h-1.594Zm1.025-3.11h-.014l-.653,1.986h1.312Z" transform="translate(-142.635 -142.116)" fill="#9c7e49"/>
      <path id="Path_133" data-name="Path 133" d="M209.167,146.6h.122c.311,0,.639-.043.639-.492v-4.529c0-.45-.328-.493-.639-.493h-.122v-.26c.38,0,.865.035,1.348.035s.986-.035,1.383-.035c1.452,0,2,.605,2,1.357,0,.881-.812,1.262-1.573,1.4v.017a1.7,1.7,0,0,1,1.927,1.547,1.907,1.907,0,0,1-2.04,1.711c-.432,0-.977-.034-1.512-.034s-1.158.034-1.53.034Zm1.867-3.128h.424c.734,0,1.279-.311,1.279-1.123a1.057,1.057,0,0,0-1.184-1.21h-.519Zm0,2.342c0,.605.112.735.778.735a1.3,1.3,0,0,0,1.279-1.365,1.332,1.332,0,0,0-1.5-1.4h-.554Z" transform="translate(-158.005 -140.823)" fill="#9c7e49"/>
      <path id="Path_134" data-name="Path 134" d="M226.117,147.145a2.791,2.791,0,0,0-.154.547c0,.211.294.246.526.246h.077v.21c-.281-.014-.568-.028-.849-.028-.253,0-.506.014-.758.028v-.21H225a.638.638,0,0,0,.611-.456l1.123-3.221a5.8,5.8,0,0,0,.26-.871,3.678,3.678,0,0,0,.639-.3.167.167,0,0,1,.055-.014c.022,0,.036,0,.049.022.021.056.042.119.063.175l1.291,3.671c.085.245.169.506.26.716a.444.444,0,0,0,.463.281h.043v.21c-.316-.014-.631-.028-.969-.028s-.695.014-1.052.028v-.21h.077c.161,0,.434-.028.434-.2a2.249,2.249,0,0,0-.14-.506l-.273-.814h-1.594Zm1.025-3.11h-.014l-.653,1.986h1.313Z" transform="translate(-167.077 -142.116)" fill="#9c7e49"/>
      <path id="Path_135" data-name="Path 135" d="M240.995,146.1l-1.4-1.923c-.211-.3-.344-.477-.674-.477h-.07v-.211c.379,0,.722.028,1.1.028.365,0,.7-.028,1.038-.028v.211H240.9c-.189,0-.366.049-.366.161,0,.077.085.169.126.231l1.06,1.488.87-1.257c.126-.2.218-.322.218-.456s-.3-.168-.4-.168h-.126v-.211c.266,0,.533.028.8.028.225,0,.45-.028.667-.028v.211a.716.716,0,0,0-.547.322l-1.306,1.846v1.678c0,.6.21.631.583.631h.133v.21c-.414,0-.835-.028-1.144-.028-.351,0-.772.028-1.187.028v-.21h.134c.414,0,.583-.112.583-.576Z" transform="translate(-175.056 -142.353)" fill="#9c7e49"/>
    </g>
  </g>
</svg>
