<svg xmlns="http://www.w3.org/2000/svg" width="21.853" height="13.068" viewBox="0 0 21.853 13.068">
  <g id="Group_559" data-name="Group 559" transform="translate(-3095.818 -4010.767)">
    <path id="Path_19" data-name="Path 19" d="M3120.163,4043.953h-19.277a5.136,5.136,0,0,1,.374-.389c2.128-1.737,4.268-3.459,6.38-5.215a.677.677,0,0,1,1.013,0c2.183,1.605,1.494,1.6,3.677-.008a.751.751,0,0,1,1.13.024c2.026,1.713,4.083,3.389,6.128,5.079C3119.746,4043.57,3119.894,4043.712,3120.163,4043.953Z" transform="translate(-3.731 -20.118)" fill="#9c7e49"/>
    <path id="Path_20" data-name="Path 20" d="M3102.187,4010.767h18.578c-.264.218-.428.365-.6.5q-4.1,3.042-8.194,6.083c-.284.211-.506.417-.911.112-2.886-2.173-5.793-4.317-8.693-6.473A1.514,1.514,0,0,1,3102.187,4010.767Z" transform="translate(-4.689 0)" fill="#9c7e49"/>
    <path id="Path_21" data-name="Path 21" d="M3150.523,4019.074l7.425-5.508V4025.2Z" transform="translate(-40.276 -2.061)" fill="#9c7e49"/>
    <path id="Path_22" data-name="Path 22" d="M3095.818,4013.494l7.489,5.552-7.489,6.111Z" transform="translate(0 -2.008)" fill="#9c7e49"/>
  </g>
</svg>
