<svg id="Group_558" data-name="Group 558" xmlns="http://www.w3.org/2000/svg" width="17.456" height="22.421" viewBox="0 0 17.456 22.421">
  <g id="Group_15" data-name="Group 15">
    <path id="Path_9" data-name="Path 9" d="M908.211,1376.871a11.086,11.086,0,0,0,.273-4.281,6.42,6.42,0,0,0-1.131-2.971,7.139,7.139,0,0,0-2.673-2.275,9.774,9.774,0,0,0-3.125-.945,10.639,10.639,0,0,0-3.625.109,8.858,8.858,0,0,0-4.081,2.055,7.724,7.724,0,0,0-2.31,3.41,7.886,7.886,0,0,0-.116,4.7,3.523,3.523,0,0,0,2.743,2.564.2.2,0,0,0,.172-.058,1.984,1.984,0,0,0,.08-2.151,5.028,5.028,0,0,1-.584-1.147,5.311,5.311,0,0,1,.31-3.583,6.32,6.32,0,0,1,2.066-2.56,6.778,6.778,0,0,1,3.79-1.383,5.393,5.393,0,0,1,3.418.968,4.248,4.248,0,0,1,1.73,2.394,8.289,8.289,0,0,1,.229,3.278,7.693,7.693,0,0,1-1.517,4,3.05,3.05,0,0,1-3.344,1.2,1.554,1.554,0,0,1-1.253-1.613,7.658,7.658,0,0,1,.406-2.18,17.849,17.849,0,0,0,.8-3.055,1.7,1.7,0,0,0-.516-1.66,1.96,1.96,0,0,0-2.932.395,4.479,4.479,0,0,0-.508,4.605.475.475,0,0,1,.04.248c-.053.29-.119.579-.189.866-.424,1.753-.867,3.5-1.273,5.257a15.355,15.355,0,0,0-.354,4.264c.023.451.084.9.127,1.349l.081.043c.323-.326.667-.634.963-.981a7.624,7.624,0,0,0,1.455-2.784c.373-1.236.672-2.493,1.013-3.773.207.137.449.289.683.45a4.519,4.519,0,0,0,2.031.906,5.716,5.716,0,0,0,4.306-1.158,8.169,8.169,0,0,0,2.821-4.5" transform="translate(-891.12 -1366.295)" fill="#9c7e49"/>
  </g>
</svg>
