<svg id="Group_561" data-name="Group 561" xmlns="http://www.w3.org/2000/svg" width="24.072" height="19.744" viewBox="0 0 24.072 19.744">
  <g id="Group_11" data-name="Group 11">
    <path id="Path_7" data-name="Path 7" d="M704.161,1370.3c-.089.08-.218-.014-.3.1s-.261-.028-.329.133c0,0-.033,0-.046,0-.126,0-.256-.023-.346.095-.179-.035-.309.153-.493.1-.035-.011-.081.031-.124.048a.548.548,0,0,1-.469-.014c.3-.3.593-.593.888-.889.057-.057.153-.115.158-.175.005-.117.089-.163.152-.227s.04-.188.136-.235.08-.171.139-.229a4.234,4.234,0,0,0,.45-.786c.011-.015-.006-.064-.024-.083a.111.111,0,0,0-.083-.022.232.232,0,0,0-.08.041,5.519,5.519,0,0,0-.63.341c-.138-.042-.241.041-.349.1a.575.575,0,0,1-.341.106.542.542,0,0,1-.36.173c-.145.014-.238.176-.393.1a.257.257,0,0,1-.25.1.23.23,0,0,0-.219.063c-.071.076-.181.024-.274.03-.113.007-.223,0-.33,0-.087-.084-.159-.17-.248-.241s-.146-.2-.285-.244a.652.652,0,0,1-.277-.14,1.086,1.086,0,0,0-.306-.2c-.161-.076-.32-.166-.484-.233a.98.98,0,0,0-.295-.113c-.112-.012-.214-.11-.349-.084-.027,0-.074,0-.087-.015-.1-.133-.237-.087-.354-.075-.139.013-.206-.116-.347-.111-.4.021-.81.005-1.211.009-.044,0-.108,0-.13.027-.071.1-.176.08-.263.064-.116-.023-.153.1-.25.1-.123,0-.256-.029-.346.095-.157-.059-.256.09-.389.114-.049.011-.084.093-.161.08a.2.2,0,0,0-.2.085c-.053.062-.1.131-.2.107-.134.177-.362.235-.511.4a8.879,8.879,0,0,1-.75.751c-.134.119-.155.3-.3.416a.533.533,0,0,0-.122.233c-.043.114-.115.209-.158.322-.057.154-.174.291-.142.474a.105.105,0,0,1-.027.083.21.21,0,0,0-.063.261c.039.135-.119.169-.111.3a11.834,11.834,0,0,1,0,1.208c0,.129.1.189.1.3s.006.222.011.334c0,.011.02.023.035.033a.206.206,0,0,1,0,.3c-.168-.025-.354.068-.5-.1h-.337a2.121,2.121,0,0,0-.337,0c-.125.021-.166-.13-.3-.109a.532.532,0,0,1-.415-.039c-.13-.092-.276-.03-.415-.051-.012,0-.032-.006-.038-.017-.063-.1-.17-.092-.258-.074-.116.022-.158-.089-.251-.1s-.2.048-.273-.032-.179-.052-.264-.065c-.09-.162-.315-.034-.406-.193-.165.043-.28-.134-.442-.1-.083-.121-.241-.058-.332-.128-.067-.053-.16-.036-.2-.1-.057-.088-.172-.052-.24-.127-.044-.044-.159-.01-.22-.044a6.311,6.311,0,0,0-.636-.336c-.114-.055-.2-.139-.306-.2a2.6,2.6,0,0,0-.358-.179.116.116,0,0,1-.036-.034c-.055-.088-.152-.1-.231-.139s-.139-.149-.266-.181c-.1-.023-.172-.155-.3-.2-.106-.04-.186-.15-.3-.2-.1-.045-.151-.185-.247-.226a.617.617,0,0,1-.295-.215c-.069-.1-.192-.09-.274-.164s-.151-.194-.285-.24a.755.755,0,0,1-.25-.21c-.1-.087-.185-.181-.276-.272-.034-.029-.072-.087-.106-.085-.142,0-.181-.121-.263-.189a2.1,2.1,0,0,1-.24-.24c-.071-.082-.188-.131-.207-.251s-.157-.156-.19-.258c-.018-.06,0-.131-.095-.131-.131,0-.095.1-.1.169-.006.031,0,.077-.02.086-.1.07-.052.179-.087.258s-.1.147-.091.253-.138.171-.1.3c.03.1-.038.172-.084.254a.46.46,0,0,0-.006.285c.021.114-.1.15-.105.25-.012.214.083.447-.093.638a3.153,3.153,0,0,0,.008.529c.023.1.108.18.093.3-.013.079.006.162-.006.24-.013.1.121.12.1.2-.038.142.121.22.1.349.172.069.044.264.163.372.081.073.077.234.149.318a2.128,2.128,0,0,1,.237.34c.041.08.038.186.136.235s.071.169.134.233c.139.136.275.273.41.408.038.206.228.3.342.441.02.026.1.04.026.118-.223,0-.464.015-.705-.006-.131-.01-.243-.121-.392-.092a.268.268,0,0,1-.257-.082c-.061-.057-.179.02-.261-.073-.056-.062-.172-.05-.236-.129-.01-.013-.12.021-.12.037a1.512,1.512,0,0,0,.012.519c.109.062.088.175.066.256-.038.138.148.165.108.3a.233.233,0,0,0,.064.262c.08.069-.03.231.105.293a3.609,3.609,0,0,0,.222.489c.048.121.132.235.18.359s.227.181.215.348c.1.1.2.2.3.306.24.24.49.469.714.722.119.133.294.165.412.3a.834.834,0,0,0,.274.153c.176.084.346.176.522.257.121.055.227.164.38.134.03,0,.1.005.044.095-.553,0-1.115,0-1.677,0-.072,0-.162-.033-.216.05,0,.1,0,.192,0,.29-.006.07.046.114.063.167.045.123.159.2.2.3s.13.171.178.264a.952.952,0,0,0,.208.3c.094.087.183.18.273.269s.183.185.274.277.2.205.307.307a2.161,2.161,0,0,1,.268.275c.082.112.24.083.308.2a.9.9,0,0,0,.372.266,1.365,1.365,0,0,1,.462.282c.038.046.087.031.133.028.071-.006.113.036.168.067a1.357,1.357,0,0,1,.236.126c.24-.043.442.15.685.1a2.809,2.809,0,0,1,.454,0c-.121.121-.179.215-.259.253a.826.826,0,0,0-.3.212c-.181-.022-.216.23-.395.213a2.321,2.321,0,0,1-.475.258,3.632,3.632,0,0,1-.483.229.993.993,0,0,0-.274.157c-.1.074-.271-.036-.331.13-.184-.052-.31.147-.489.106-.065.148-.236.039-.332.135s-.244.025-.365.047c-.03.005-.073.005-.086.024-.082.117-.21.083-.309.065-.13-.019-.194.1-.3.1-.176.009-.355,0-.533,0-.118.171-.291.082-.444.094-.174.014-.352,0-.528,0-.357,0-.71,0-1.066,0-.046,0-.094-.013-.128.044.028.03.05.077.09.095a1.713,1.713,0,0,1,.354.181,1.639,1.639,0,0,0,.344.225,6.008,6.008,0,0,0,.688.323c.08.1.222.1.315.189.054.048.172-.018.259.071a.443.443,0,0,0,.284.118c.1,0,.163.08.248.1.115.034.2.157.344.1.092.121.223.09.348.1a.1.1,0,0,1,.082.033c.07.1.2.018.256.072a.376.376,0,0,0,.307.089c.03,0,.08-.007.092.008a.222.222,0,0,0,.254.084c.11-.021.168.084.25.1a.987.987,0,0,1,.5.093.411.411,0,0,0,.282,0c.129-.028.2.089.3.1a2.184,2.184,0,0,0,.529,0c.188-.038.309.171.492.1h1.741c.063,0,.156.026.186-.005.15-.16.332-.067.5-.089.2-.026.413.069.587-.1a1.464,1.464,0,0,1,.338.005c.146.037.2-.139.347-.107a1.552,1.552,0,0,0,.38-.015c.095-.133.244-.035.351-.084.082-.037.151-.117.254-.087.126.037.191-.083.3-.1s.2.048.272-.037.2-.014.259-.073a.348.348,0,0,1,.261-.084c.075-.005.107-.122.2-.093.113.034.171-.108.25-.089.147.034.216-.13.348-.1.064-.18.287-.022.366-.171a2.5,2.5,0,0,0,.486-.224,2.669,2.669,0,0,0,.511-.282c.172.034.189-.213.354-.195.12-.1.282-.116.382-.251.029-.042.112-.041.162-.075s.116-.146.173-.147c.159,0,.179-.187.308-.2s.188-.121.254-.2c.083-.106.219-.1.311-.2a1.851,1.851,0,0,1,.5-.424,1.874,1.874,0,0,0,.416-.4c.151-.146.3-.29.443-.443.122-.137.287-.238.351-.436.031-.094.146-.172.235-.238s.1-.192.17-.27.157-.16.239-.24c-.021-.139.1-.186.17-.269.046-.06.136-.093.122-.19a1.637,1.637,0,0,0,.322-.546c.173-.12.173-.361.309-.5.164-.157.188-.385.336-.54a3.212,3.212,0,0,1,.291-.606c-.037-.122.055-.2.1-.3s.064-.215.136-.278c.1-.09.013-.214.1-.3a.559.559,0,0,0,.146-.273.636.636,0,0,1,.107-.3c-.077-.147.111-.215.1-.346-.014-.109-.025-.227.093-.3a1.506,1.506,0,0,0-.006-.336c-.028-.139.108-.215.11-.347,0-.152-.085-.324.067-.455.008-.157.015-.315.023-.474,0-.013,0-.038.013-.041.139-.111.068-.266.083-.4.006-.08-.032-.185.006-.237.171-.214.057-.461.091-.689.005-.031-.013-.075,0-.1.181-.207.072-.458.091-.686.019-.256.005-.516.005-.781.175-.178.354-.364.541-.537a2.61,2.61,0,0,1,.6-.525,3.573,3.573,0,0,0,.608-.659c.056-.138.21-.238.321-.351s.23-.225.34-.344c.016-.017.006-.061,0-.093a.106.106,0,0,0-.122-.051A1.4,1.4,0,0,0,704.161,1370.3Z" transform="translate(-680.487 -1367.719)" fill="#9c7e49" fill-rule="evenodd"/>
  </g>
</svg>
